<?xml version="1.0" encoding="UTF-8" standalone="no"?><!-- Generator: Gravit.io --><svg xmlns="http://www.w3.org/2000/svg" xmlns:xlink="http://www.w3.org/1999/xlink" style="isolation:isolate" viewBox="0 0 96 96" width="96pt" height="96pt"><defs><clipPath id="_clipPath_1KDN9cIRYQV9bn6ISHU0EQZz6MzmWe2e"><rect width="96" height="96"/></clipPath></defs><g clip-path="url(#_clipPath_1KDN9cIRYQV9bn6ISHU0EQZz6MzmWe2e)"><g opacity="0"><rect x="0" y="0" width="64" height="64" transform="matrix(1,0,0,1,0,0)" fill="rgb(255,255,255)"/></g><g><path d=" M 47.999 72.611 C 47.115 72.611 46.231 72.383 45.443 71.928 L 28.556 62.178 C 26.979 61.268 26 59.572 26 57.75 L 26 38.25 C 26 36.429 26.979 34.732 28.556 33.822 L 45.443 24.072 C 47.019 23.161 48.98 23.161 50.556 24.072 L 67.444 33.822 C 69.02 34.732 70 36.428 70 38.25 L 70 57.75 C 70 59.571 69.021 61.268 67.444 62.178 L 50.556 71.928 C 49.768 72.384 48.883 72.611 47.999 72.611 Z  M 47.999 25.39 C 47.461 25.39 46.923 25.529 46.443 25.806 L 29.556 35.556 C 28.596 36.11 28 37.142 28 38.251 L 28 57.751 C 28 58.859 28.596 59.893 29.556 60.446 L 46.443 70.196 C 47.404 70.752 48.596 70.751 49.556 70.196 L 66.444 60.446 C 67.404 59.892 68 58.859 68 57.751 L 68 38.251 C 68 37.142 67.404 36.109 66.444 35.556 L 49.556 25.806 C 49.076 25.528 48.538 25.39 47.999 25.39 Z " fill="rgb(255,255,255)"/><g><path d=" M 51.166 63.751 C 49.977 63.751 49.374 63.02 49.374 61.578 L 49.374 57.667 L 46.916 57.667 L 46.916 61.578 C 46.916 62.115 46.916 63.751 45.166 63.751 C 43.416 63.751 43.416 62.115 43.416 61.578 L 43.416 57.619 C 41.791 57.574 40.416 57.241 40.416 54.723 L 40.416 42.251 L 55.916 42.251 L 55.916 54.724 C 55.916 57.091 54.27 57.504 52.916 57.591 L 52.916 61.578 C 52.916 62.115 52.916 63.751 51.166 63.751 Z  M 50.959 62.225 C 50.961 62.225 51.017 62.251 51.166 62.251 C 51.312 62.251 51.36 62.226 51.36 62.226 C 51.37 62.203 51.416 62.063 51.416 61.579 L 51.416 56.131 L 52.151 56.117 C 54.24 56.078 54.416 55.744 54.416 54.723 L 54.416 43.751 L 41.916 43.751 L 41.916 54.724 C 41.916 56.059 42.021 56.124 44.167 56.127 L 44.916 56.128 L 44.916 61.578 C 44.916 62.045 44.958 62.191 44.986 62.237 C 44.995 62.225 45.047 62.251 45.166 62.251 C 45.312 62.251 45.36 62.226 45.361 62.226 C 45.37 62.203 45.416 62.063 45.416 61.579 L 45.416 56.168 L 50.874 56.168 L 50.874 61.579 C 50.874 62.094 50.944 62.206 50.959 62.225 L 50.959 62.225 Z " fill="rgb(255,255,255)"/><path d=" M 39.166 54.898 C 37.649 54.898 36.416 53.665 36.416 52.149 L 36.416 45.15 C 36.416 43.634 37.649 42.4 39.166 42.4 C 40.683 42.4 41.916 43.633 41.916 45.15 L 41.916 52.149 C 41.916 53.665 40.683 54.898 39.166 54.898 Z  M 39.166 43.901 C 38.477 43.901 37.916 44.462 37.916 45.151 L 37.916 52.15 C 37.916 52.838 38.477 53.399 39.166 53.399 C 39.855 53.399 40.416 52.838 40.416 52.15 L 40.416 45.151 C 40.416 44.461 39.855 43.901 39.166 43.901 Z " fill="rgb(255,255,255)"/><path d=" M 55.916 43.751 L 40.416 43.751 L 40.416 43.001 C 40.416 40.738 41.443 38.731 43.325 37.281 L 42.476 35.852 C 41.995 34.792 42.19 33.825 42.912 33.423 C 43.245 33.236 43.631 33.199 43.996 33.32 C 44.453 33.471 44.849 33.857 45.082 34.378 L 45.9 35.888 C 46.651 35.632 47.493 35.534 48.125 35.534 C 48.295 35.534 49.503 35.546 50.476 35.872 L 51.303 34.388 C 51.507 33.927 51.85 33.581 52.265 33.444 C 52.511 33.363 52.894 33.318 53.334 33.563 C 54.078 33.977 54.306 34.866 53.899 35.774 L 53.006 37.279 C 54.888 38.729 55.915 40.736 55.915 42.999 L 55.915 43.751 L 55.916 43.751 Z  M 41.963 42.251 L 54.369 42.251 C 54.101 40.175 52.752 38.871 51.599 38.121 L 51.116 37.806 L 51.03 37.96 L 50.344 37.454 C 50.036 37.227 49.019 37.035 48.124 37.035 C 47.32 37.035 46.438 37.224 45.93 37.505 L 45.267 37.872 L 45.227 37.798 L 44.731 38.121 C 43.58 38.871 42.23 40.175 41.963 42.251 Z " fill="rgb(255,255,255)"/><path d=" M 57.166 54.898 C 55.649 54.898 54.416 53.665 54.416 52.149 L 54.416 45.15 C 54.416 43.634 55.649 42.4 57.166 42.4 C 58.683 42.4 59.916 43.633 59.916 45.15 L 59.916 52.149 C 59.916 53.665 58.683 54.898 57.166 54.898 Z  M 57.166 43.901 C 56.477 43.901 55.916 44.462 55.916 45.151 L 55.916 52.15 C 55.916 52.838 56.477 53.399 57.166 53.399 C 57.855 53.399 58.416 52.838 58.416 52.15 L 58.416 45.151 C 58.416 44.461 57.855 43.901 57.166 43.901 Z " fill="rgb(255,255,255)"/><ellipse vector-effect="non-scaling-stroke" cx="45.166" cy="40.39512499999999" rx="0.6360000000000028" ry="0.6060000000000016" fill="rgb(255,255,255)"/><ellipse vector-effect="non-scaling-stroke" cx="51.166" cy="40.39512499999999" rx="0.6360000000000028" ry="0.6060000000000016" fill="rgb(255,255,255)"/></g><g opacity="0.2"><path d=" M 48.137 49.661 L 27.945 38.099 C 27.466 37.825 27.3 37.214 27.574 36.734 C 27.848 36.255 28.46 36.089 28.939 36.363 L 48.112 47.341 L 66.593 36.208 C 67.064 35.923 67.68 36.075 67.965 36.548 C 68.25 37.021 68.098 37.636 67.624 37.921 L 48.137 49.661 Z " fill="rgb(255,255,255)"/></g></g></g></svg>