<?xml version="1.0" encoding="UTF-8" standalone="no"?>
<!-- Created with Inkscape (http://www.inkscape.org/) -->

<svg
   xmlns:dc="http://purl.org/dc/elements/1.1/"
   xmlns:cc="http://creativecommons.org/ns#"
   xmlns:rdf="http://www.w3.org/1999/02/22-rdf-syntax-ns#"
   xmlns:svg="http://www.w3.org/2000/svg"
   xmlns="http://www.w3.org/2000/svg"
   xmlns:xlink="http://www.w3.org/1999/xlink"
   xmlns:sodipodi="http://sodipodi.sourceforge.net/DTD/sodipodi-0.dtd"
   xmlns:inkscape="http://www.inkscape.org/namespaces/inkscape"
   width="96"
   height="96"
   id="svg2160"
   sodipodi:version="0.32"
   inkscape:version="0.91 r13725"
   sodipodi:docname="audio-x-generic.svg"
   inkscape:output_extension="org.inkscape.output.svg.inkscape"
   sodipodi:modified="true"
   version="1.1">
  <defs
     id="defs2162">
    <linearGradient
       inkscape:collect="always"
       id="linearGradient3761">
      <stop
         style="stop-color:#ffffff;stop-opacity:1;"
         offset="0"
         id="stop3763" />
      <stop
         style="stop-color:#ffffff;stop-opacity:0;"
         offset="1"
         id="stop3765" />
    </linearGradient>
    <linearGradient
       inkscape:collect="always"
       xlink:href="#linearGradient3761"
       id="linearGradient3767"
       x1="12"
       y1="21"
       x2="46"
       y2="21"
       gradientUnits="userSpaceOnUse"
       gradientTransform="translate(24,-24)" />
  </defs>
  <sodipodi:namedview
     id="base"
     pagecolor="#ffffff"
     bordercolor="#666666"
     borderopacity="1.0"
     inkscape:pageopacity="0"
     inkscape:pageshadow="2"
     inkscape:zoom="3.1022238"
     inkscape:cx="32.801516"
     inkscape:cy="24"
     inkscape:current-layer="layer1"
     showgrid="true"
     inkscape:grid-bbox="true"
     inkscape:document-units="px"
     inkscape:grid-points="true"
     showguides="true"
     inkscape:guide-bbox="true"
     inkscape:window-width="1280"
     inkscape:window-height="716"
     inkscape:window-x="63"
     inkscape:window-y="34"
     inkscape:window-maximized="0">
    <sodipodi:guide
       orientation="horizontal"
       position="44"
       id="guide2168" />
    <sodipodi:guide
       orientation="vertical"
       position="3.9333333"
       id="guide2170" />
    <sodipodi:guide
       orientation="vertical"
       position="44"
       id="guide2172" />
    <sodipodi:guide
       orientation="horizontal"
       position="4.0666667"
       id="guide2174" />
  </sodipodi:namedview>
  <metadata
     id="metadata2165">
    <rdf:RDF>
      <cc:Work
         rdf:about="">
        <dc:format>image/svg+xml</dc:format>
        <dc:type
           rdf:resource="http://purl.org/dc/dcmitype/StillImage" />
        <dc:title>Generic Audio File</dc:title>
        <dc:creator>
          <cc:Agent>
            <dc:title>Luca Ferretti &lt;elle.uca@libero.it&gt;</dc:title>
          </cc:Agent>
        </dc:creator>
        <dc:subject>
          <rdf:Bag>
            <rdf:li>audio</rdf:li>
            <rdf:li>music</rdf:li>
            <rdf:li>file</rdf:li>
          </rdf:Bag>
        </dc:subject>
        <dc:coverage>A generic icon for music and audio files</dc:coverage>
        <cc:license
           rdf:resource="http://creativecommons.org/licenses/LGPL/2.1/" />
      </cc:Work>
      <cc:License
         rdf:about="http://creativecommons.org/licenses/LGPL/2.1/">
        <cc:permits
           rdf:resource="http://web.resource.org/cc/Reproduction" />
        <cc:permits
           rdf:resource="http://web.resource.org/cc/Distribution" />
        <cc:requires
           rdf:resource="http://web.resource.org/cc/Notice" />
        <cc:permits
           rdf:resource="http://web.resource.org/cc/DerivativeWorks" />
        <cc:requires
           rdf:resource="http://web.resource.org/cc/ShareAlike" />
        <cc:requires
           rdf:resource="http://web.resource.org/cc/SourceCode" />
      </cc:License>
    </rdf:RDF>
  </metadata>
  <g
     id="layer1"
     inkscape:label="Layer 1"
     inkscape:groupmode="layer"
     transform="translate(0,48)">
    <rect
       style="fill:none;stroke:none"
       id="rect4126"
       width="48"
       height="48"
       x="24"
       y="-24" />
    <path
       transform="matrix(1.0666667,0,0,1,22.6,-24)"
       d="M 21,34 A 7.5,6 0 0 1 13.5,40 7.5,6 0 0 1 6,34 7.5,6 0 0 1 13.5,28 7.5,6 0 0 1 21,34 Z"
       sodipodi:ry="6"
       sodipodi:rx="7.5"
       sodipodi:cy="34"
       sodipodi:cx="13.5"
       id="path5117"
       style="fill:#ffffff;fill-opacity:1;stroke:#ffffff;stroke-width:3.87298322;stroke-linecap:round;stroke-linejoin:round;stroke-miterlimit:4;stroke-opacity:1;stroke-dasharray:none"
       sodipodi:type="arc" />
    <path
       sodipodi:nodetypes="ccccccccc"
       id="path6090"
       d="m 45,10 0,-19 16,4 0,19 5,0 0,-27 -26,-7 0,30 5,0 z"
       style="fill:url(#linearGradient3767);fill-opacity:1;fill-rule:evenodd;stroke:#ffffff;stroke-width:4;stroke-linecap:round;stroke-linejoin:round;stroke-miterlimit:4;stroke-opacity:1;stroke-dasharray:none"
       inkscape:connector-curvature="0" />
    <path
       sodipodi:type="arc"
       style="fill:#bebebe;fill-opacity:1;stroke:none"
       id="path3149"
       sodipodi:cx="13.5"
       sodipodi:cy="34"
       sodipodi:rx="7.5"
       sodipodi:ry="6"
       d="M 21,34 A 7.5,6 0 0 1 13.5,40 7.5,6 0 0 1 6,34 7.5,6 0 0 1 13.5,28 7.5,6 0 0 1 21,34 Z"
       transform="matrix(1.0666667,0,0,1,22.6,-24)" />
    <path
       sodipodi:type="arc"
       style="fill:#ffffff;fill-opacity:1;stroke:#ffffff;stroke-width:3.87298322;stroke-linecap:round;stroke-linejoin:round;stroke-miterlimit:4;stroke-opacity:1;stroke-dasharray:none"
       id="path6088"
       sodipodi:cx="13.5"
       sodipodi:cy="34"
       sodipodi:rx="7.5"
       sodipodi:ry="6"
       d="M 21,34 A 7.5,6 0 0 1 13.5,40 7.5,6 0 0 1 6,34 7.5,6 0 0 1 13.5,28 7.5,6 0 0 1 21,34 Z"
       transform="matrix(1.0666667,0,0,1,43.599999,-20)" />
    <path
       style="fill:#a38d1c;fill-opacity:0.15686275;fill-rule:evenodd;stroke:none"
       d="m 45,10 0,-19 16,4 0,19 5,0 0,-27 -26,-7 0,30 5,0 z"
       id="path3153"
       sodipodi:nodetypes="ccccccccc"
       inkscape:connector-curvature="0" />
    <use
       x="0"
       y="0"
       xlink:href="#path3149"
       id="use4124"
       transform="translate(21,4)"
       width="48"
       height="48"
       style="fill:#ffffff;fill-opacity:1" />
    <path
       style="fill:#a0a0a0;stroke:none;stroke-width:1px;stroke-linecap:butt;stroke-linejoin:miter;stroke-opacity:1"
       d="m 65.133161,59.297839 c -0.800357,-1.251723 -1.915443,-2.089002 -3.564483,-2.676445 -0.698917,-0.248978 -1.089436,-0.459054 -0.867821,-0.466836 0.308703,-0.01084 0.402937,-1.550196 0.402937,-6.582158 l 0,-6.56801 -7.892944,-1.97425 c -4.341118,-1.085837 -7.967549,-1.974249 -8.058735,-1.974249 -0.09119,0 -0.166334,3.95281 -0.166996,8.784021 -0.0012,8.693654 -0.0074,8.773931 -0.599308,7.803235 -0.759103,-1.2448 -2.441485,-2.668396 -3.453699,-2.922446 l -0.781029,-0.196025 0,-12.236055 c 0,-11.500959 0.03389,-12.226202 0.564111,-12.072061 0.310261,0.0902 6.112551,1.649298 12.893976,3.46467 l 12.329865,3.300676 0,12.674523 c 0,6.970987 -0.03627,12.668936 -0.08059,12.662106 -0.04432,-0.0068 -0.370701,-0.466143 -0.725286,-1.020696 z"
       id="path4148"
       inkscape:connector-curvature="0"
       transform="translate(0,-48)" />
    <path
       style="fill:#a0a0a0;stroke:none;stroke-width:1px;stroke-linecap:butt;stroke-linejoin:miter;stroke-opacity:1"
       d="m 54.575564,67.285075 c -4.552587,-1.624658 -5.815865,-5.952987 -2.606919,-8.932007 1.751247,-1.625768 2.955136,-2.038622 6.072829,-2.082578 2.451537,-0.03456 3.13534,0.07635 4.412316,0.715683 4.97251,2.489547 4.354777,8.376261 -1.080202,10.293833 -1.636118,0.577257 -5.187231,0.579904 -6.798024,0.0051 z"
       id="path4150"
       inkscape:connector-curvature="0"
       transform="translate(0,-48)" />
    <path
       style="fill:#a38d1c;stroke:none;stroke-width:1px;stroke-linecap:butt;stroke-linejoin:miter;stroke-opacity:1;fill-opacity:1"
       d="m 34.292825,63.561201 c -1.517072,-0.457987 -3.411429,-1.676386 -4.141273,-2.663553 -0.773872,-1.046717 -1.155332,-2.969431 -0.8391,-4.2294 0.623596,-2.484608 3.876705,-4.387933 7.508185,-4.392882 3.39444,-0.0046 3.330446,-0.06407 3.330446,3.093658 l 0,2.705482 2.439343,0 c 2.697733,0 2.715814,0.02708 1.549526,2.32037 -1.316132,2.587935 -6.374867,4.214562 -9.847127,3.166325 z"
       id="path4152"
       inkscape:connector-curvature="0"
       transform="translate(0,-48)" />
    <path
       style="fill:#a38d1c;stroke:none;stroke-width:1px;stroke-linecap:butt;stroke-linejoin:miter;stroke-opacity:1;fill-opacity:1"
       d="m 55.591619,67.462745 c -5.00595,-1.096848 -6.885297,-5.704946 -3.647265,-8.942979 1.664376,-1.664375 2.852025,-2.057007 6.222118,-2.057007 l 2.917908,0 -0.087,-6.843155 -0.087,-6.843154 -7.575211,-1.850917 c -4.166366,-1.018004 -7.756532,-1.85513 -7.978147,-1.860279 -0.31183,-0.0072 -0.402937,1.808486 -0.402937,8.030348 0,4.421841 -0.122073,8.115156 -0.271273,8.207367 -0.149199,0.09221 -0.765693,-0.351697 -1.369985,-0.986462 -0.604292,-0.634764 -1.592852,-1.365839 -2.196801,-1.62461 l -1.098089,-0.470494 0.190963,-11.773406 c 0.105029,-6.475373 0.265069,-11.847512 0.355643,-11.938086 0.09057,-0.09057 5.793369,1.342284 12.672879,3.184128 l 12.508199,3.348808 0.08442,12.321703 c 0.05175,7.554245 -0.03308,12.321703 -0.21926,12.321703 -0.188269,0 -0.19143,0.391386 -0.0083,1.029858 0.64402,2.245566 -1.070122,5.187598 -3.61601,6.206261 -1.555401,0.622347 -4.777916,0.894655 -6.394835,0.540373 z"
       id="path4154"
       inkscape:connector-curvature="0"
       transform="translate(0,-48)" />
    <path
       style="fill:#a38d1c;stroke:none;stroke-width:1px;stroke-linecap:butt;stroke-linejoin:miter;stroke-opacity:1;fill-opacity:1"
       d="m 42.511413,58.157979 -2.313736,-0.110777 -0.103885,-2.72707 c -0.09143,-2.400255 -0.03773,-2.726981 0.448152,-2.726318 0.692771,9.44e-4 3.873857,2.572573 3.988368,3.224246 0.04673,0.265938 0.186582,0.95496 0.310781,1.53116 0.1242,0.576199 0.171422,1.018813 0.104937,0.983585 -0.06649,-0.03523 -1.162062,-0.113899 -2.434617,-0.174826 z"
       id="path4156"
       inkscape:connector-curvature="0"
       transform="translate(0,-48)" />
    <path
       style="fill:none;stroke:none;stroke-width:1px;stroke-linecap:butt;stroke-linejoin:miter;stroke-opacity:1"
       d="m 34.778157,63.581015 c -1.412649,-0.355074 -3.842297,-1.823622 -4.451862,-2.690831 -1.881299,-2.676468 -0.938427,-5.92451 2.189344,-7.541944 2.249867,-1.163451 7.313094,-1.288217 7.313094,-0.180206 0,0.45032 0.05291,0.444449 0.411268,-0.04564 0.383062,-0.52387 0.501173,-0.497315 1.722233,0.387216 2.02304,1.465483 2.70174,2.5057 2.70174,4.140851 0,2.398615 -1.234811,4.061984 -3.872208,5.21611 -1.690404,0.739721 -4.557762,1.080376 -6.013609,0.714444 z"
       id="path4158"
       inkscape:connector-curvature="0"
       transform="translate(0,-48)" />
  </g>
</svg>
