<?xml version="1.0" encoding="UTF-8" standalone="no"?>
<!-- Created with Inkscape (http://www.inkscape.org/) -->

<svg
   xmlns:dc="http://purl.org/dc/elements/1.1/"
   xmlns:cc="http://creativecommons.org/ns#"
   xmlns:rdf="http://www.w3.org/1999/02/22-rdf-syntax-ns#"
   xmlns:svg="http://www.w3.org/2000/svg"
   xmlns="http://www.w3.org/2000/svg"
   xmlns:sodipodi="http://sodipodi.sourceforge.net/DTD/sodipodi-0.dtd"
   xmlns:inkscape="http://www.inkscape.org/namespaces/inkscape"
   width="96"
   height="96"
   id="svg1307"
   sodipodi:version="0.32"
   inkscape:version="0.91 r13725"
   sodipodi:docname="emblem-downloads.svg"
   version="1.1">
  <defs
     id="defs1309" />
  <sodipodi:namedview
     id="base"
     pagecolor="#ffffff"
     bordercolor="#666666"
     borderopacity="1.0"
     inkscape:pageopacity="0.0"
     inkscape:pageshadow="2"
     inkscape:zoom="3.9636218"
     inkscape:cx="-48.490198"
     inkscape:cy="51.994303"
     inkscape:current-layer="layer1"
     showgrid="true"
     inkscape:grid-bbox="true"
     inkscape:document-units="px"
     inkscape:grid-points="true"
     inkscape:window-width="1547"
     inkscape:window-height="876"
     inkscape:window-x="53"
     inkscape:window-y="24"
     showguides="true"
     inkscape:guide-bbox="true"
     gridtype="false"
     gridanglex="45px"
     inkscape:window-maximized="1" />
  <metadata
     id="metadata1312">
    <rdf:RDF>
      <cc:Work
         rdf:about="">
        <dc:format>image/svg+xml</dc:format>
        <dc:type
           rdf:resource="http://purl.org/dc/dcmitype/StillImage" />
        <dc:title>Download</dc:title>
        <dc:creator>
          <cc:Agent>
            <dc:title>Luca Ferretti</dc:title>
          </cc:Agent>
        </dc:creator>
        <dc:subject>
          <rdf:Bag>
            <rdf:li>emblem download</rdf:li>
          </rdf:Bag>
        </dc:subject>
        <cc:license
           rdf:resource="http://creativecommons.org/licenses/LGPL/2.1/" />
      </cc:Work>
      <cc:License
         rdf:about="http://creativecommons.org/licenses/LGPL/2.1/">
        <cc:permits
           rdf:resource="http://web.resource.org/cc/Reproduction" />
        <cc:permits
           rdf:resource="http://web.resource.org/cc/Distribution" />
        <cc:requires
           rdf:resource="http://web.resource.org/cc/Notice" />
        <cc:permits
           rdf:resource="http://web.resource.org/cc/DerivativeWorks" />
        <cc:requires
           rdf:resource="http://web.resource.org/cc/ShareAlike" />
        <cc:requires
           rdf:resource="http://web.resource.org/cc/SourceCode" />
      </cc:License>
    </rdf:RDF>
  </metadata>
  <g
     id="layer1"
     inkscape:label="Layer 1"
     inkscape:groupmode="layer"
     transform="translate(0,48)">
    <rect
       ry="5.0764384"
       y="-20"
       x="28"
       height="40"
       width="40"
       id="rect2190"
       style="fill:#ffffff;fill-opacity:1;fill-rule:evenodd;stroke:#ffffff;stroke-width:4;stroke-linecap:butt;stroke-linejoin:miter;stroke-miterlimit:4;stroke-opacity:1;stroke-dasharray:none" />
    <rect
       style="fill:#bebebe;fill-opacity:1;fill-rule:evenodd;stroke:none"
       id="rect1315"
       width="40"
       height="40"
       x="28"
       y="-20"
       ry="5.1425543" />
    <path
       style="fill:#ffffff;fill-opacity:1;fill-rule:evenodd;stroke:#ffffff;stroke-width:4;stroke-linecap:square;stroke-linejoin:round;stroke-miterlimit:4;stroke-opacity:1;stroke-dasharray:none"
       d="m 45,-21 0,11 -8,0 11,9 11,-9 -8,0 0,-11"
       id="path3940"
       sodipodi:nodetypes="ccccccc"
       inkscape:connector-curvature="0" />
    <path
       style="fill:none;stroke:#ffffff;stroke-width:10;stroke-linecap:round;stroke-linejoin:miter;stroke-miterlimit:4;stroke-opacity:1;stroke-dasharray:none"
       d="m 36,10 24,0"
       id="path5688"
       sodipodi:nodetypes="cc"
       inkscape:connector-curvature="0" />
    <path
       sodipodi:nodetypes="cc"
       id="path7494"
       d="m 36,10 14,0"
       style="fill:none;stroke:#bebebe;stroke-width:6;stroke-linecap:round;stroke-linejoin:miter;stroke-miterlimit:4;stroke-opacity:1;stroke-dasharray:none"
       inkscape:connector-curvature="0" />
    <path
       style="opacity:1;fill:#a38d1c;fill-opacity:1;stroke:#000000;stroke-width:0.18700345"
       d="M 31.972328,67.802714 C 30.404874,67.422581 28.873942,66.020762 28.32006,64.45846 28.12751,63.915346 28.076675,60.452016 28.076675,47.876668 c 0,-15.807413 0.0022,-15.900038 0.396957,-16.753525 0.445967,-0.964192 1.457505,-2.055737 2.364308,-2.551311 0.534005,-0.291837 1.277889,-0.337166 6.355153,-0.387252 l 5.750356,-0.05673 0,3.937048 0,3.937048 -3.324452,0 c -3.652876,0 -3.887459,0.06089 -4.453809,1.156091 -0.315627,0.610356 -0.242493,1.517063 0.163766,2.030352 0.319474,0.40364 11.357809,9.422061 11.85653,9.686895 0.585026,0.310662 1.19105,0.267189 1.835578,-0.131673 1.324618,-0.819733 11.615363,-9.438003 11.852501,-9.926206 0.371819,-0.765477 0.135669,-1.751732 -0.5595,-2.336677 -0.564189,-0.474733 -0.597337,-0.478782 -3.920714,-0.478782 l -3.351713,0 0,-3.934726 0,-3.934726 5.765477,0.0544 5.765477,0.0544 0.919896,0.56646 c 1.128715,0.695048 2.041008,2.005046 2.314807,3.323928 0.141751,0.682815 0.189061,5.752255 0.153122,16.40769 l -0.052,15.419581 -0.430783,0.935017 c -0.546959,1.187173 -1.195766,1.869034 -2.374269,2.495234 l -0.935017,0.496821 -15.801792,0.03017 c -8.690985,0.01661 -16.068384,-0.03448 -16.394221,-0.113498 z m 30.062189,-5.175722 c 1.766508,-0.817061 2.80675,-2.349899 2.940544,-4.333007 0.141183,-2.092669 -0.955562,-3.944248 -2.863758,-4.834731 l -0.935017,-0.436337 -13.183743,0.0023 c -12.855554,0.0022 -13.204692,0.01174 -14.025259,0.38276 -1.786097,0.80756 -2.805573,2.297496 -2.950157,4.311572 -0.07488,1.04316 -0.01554,1.400456 0.37274,2.244042 0.723545,1.572007 1.905782,2.580868 3.459606,2.952255 0.392561,0.09383 6.407913,0.155504 13.517076,0.138594 12.629938,-0.03004 12.821783,-0.03604 13.667968,-0.427428 z"
       id="path3338"
       inkscape:connector-curvature="0"
       transform="translate(0,-48)" />
    <path
       style="opacity:0.478;fill:#a38d1c;fill-opacity:1;stroke:#000000;stroke-width:0.18700345"
       d="m 39.237677,60.920434 c 2.024474,-0.03017 5.390536,-0.03021 7.480137,-9.2e-5 2.089602,0.03012 0.433213,0.0548 -3.680863,0.05485 -4.114076,5e-5 -5.823749,-0.02459 -3.799274,-0.05476 z"
       id="path3340"
       inkscape:connector-curvature="0"
       transform="translate(0,-48)" />
    <path
       style="opacity:0.478;fill:#a38d1c;fill-opacity:1;stroke:#000000;stroke-width:0.18700345"
       d="m 34.45701,60.405899 c -0.974988,-0.664406 -1.33227,-1.325451 -1.321358,-2.444779 0.01065,-1.092506 0.333664,-1.700828 1.277439,-2.405756 0.499579,-0.373147 0.770158,-0.387192 8.4036,-0.436219 7.406066,-0.04757 7.927344,-0.02929 8.541914,0.299507 1.89323,1.01288 2.043586,3.849229 0.265797,5.014081 -0.456333,0.299001 -1.204979,0.328513 -8.559313,0.337416 -7.760182,0.0094 -8.079607,-0.0041 -8.608079,-0.36425 z"
       id="path3342"
       inkscape:connector-curvature="0"
       transform="translate(0,-48)" />
    <path
       style="opacity:1;fill:#a38d1c;fill-opacity:1;stroke:#000000;stroke-width:0.25229451"
       d="m 34.75614,60.361724 c -1.423402,-0.588153 -1.838348,-2.9453 -0.742739,-4.219207 l 0.608803,-0.707879 8.36939,0 8.36939,0 0.608998,0.707879 c 0.842312,0.979074 0.842491,2.650678 3.79e-4,3.630132 l -0.608601,0.707879 -8.032477,0.0523 c -4.417862,0.02876 -8.275776,-0.04823 -8.573143,-0.171105 z"
       id="path4141"
       inkscape:connector-curvature="0"
       transform="translate(0,-48)" />
  </g>
</svg>
