<?xml version="1.0" encoding="UTF-8" standalone="no"?><!-- Generator: Gravit.io --><svg xmlns="http://www.w3.org/2000/svg" xmlns:xlink="http://www.w3.org/1999/xlink" style="isolation:isolate" viewBox="0 0 96 96" width="96pt" height="96pt"><defs><clipPath id="_clipPath_0tUFQaEdhPS4XXfne1sbVgDn5CjVs10i"><rect width="96" height="96"/></clipPath></defs><g clip-path="url(#_clipPath_0tUFQaEdhPS4XXfne1sbVgDn5CjVs10i)"><g opacity="0"><rect x="0" y="0" width="64" height="64" transform="matrix(1,0,0,1,0,0)" fill="rgb(255,255,255)"/></g><g><g style="opacity:0.6;"><g opacity="0.6"><path d=" M 45.7 32 L 43.11 29.935 C 42.273 28.74 40.699 28 38.993 28 L 28.357 28 C 27.161 28 26 29.214 26 30.5 L 26 36 L 39.091 36 C 40.737 36 42.255 35.287 43.062 34.134 L 45.7 32 Z " fill="rgb(255,255,255)"/></g><g opacity="0.6"><path d=" M 39.091 37 L 25 37 L 25 30.5 C 25 28.668 26.6 27 28.357 27 L 38.993 27 C 40.96 27 42.802 27.854 43.841 29.238 L 47.298 31.994 L 43.795 34.829 C 42.785 36.171 40.999 37 39.091 37 Z  M 27 35 L 39.091 35 C 40.413 35 41.621 34.448 42.243 33.561 L 42.433 33.357 L 44.103 32.006 L 42.291 30.509 C 41.64 29.578 40.375 29 38.993 29 L 28.357 29 C 27.765 29 27 29.728 27 30.5 L 27 35 Z " fill="rgb(255,255,255)"/></g></g><path d=" M 67.75 69 L 28.25 69 C 26.458 69 25 67.542 25 65.75 L 25 36.875 C 25 35.841 25.841 35 26.875 35 L 35.515 35 C 37.646 35 40.789 34.559 41.311 34.26 C 41.913 33.774 43.028 32.875 43.752 32.289 C 44.787 31.452 47.37 30.999 49.276 30.999 L 67.792 30.999 C 69.561 31 71 32.439 71 34.208 L 71 65.75 C 71 67.542 69.542 69 67.75 69 Z  M 27 37 L 27 65.75 C 27 66.439 27.561 67 28.25 67 L 67.75 67 C 68.439 67 69 66.439 69 65.75 L 69 34.208 C 69 33.542 68.458 33 67.792 33 L 49.276 33 C 47.309 33 45.435 33.5 45.01 33.844 C 44.283 34.432 43.165 35.333 42.525 35.846 C 41.433 36.724 36.744 37 35.515 37 L 27 37 Z " fill="rgb(255,255,255)"/></g></g></svg>