<svg xmlns="http://www.w3.org/2000/svg" xmlns:xlink="http://www.w3.org/1999/xlink" style="isolation:isolate" width="96" height="96"><rect id="backgroundrect" width="100%" height="100%" x="0" y="0" fill="none" stroke="none"/><defs><clipPath id="_clipPath_zAWuTDLK0pvyBgoQG6pfBHaJG3YtxBY8"><rect width="96" height="96" id="svg_1"/></clipPath></defs><g class="currentLayer" style=""><title>Layer 1</title><g clip-path="url(#_clipPath_zAWuTDLK0pvyBgoQG6pfBHaJG3YtxBY8)" id="svg_2" class="" fill="#919191" fill-opacity="1"><g opacity="0" id="svg_3" fill="#919191" fill-opacity="1"><rect x="0" y="0" width="64" height="64" fill="#919191" id="svg_4" fill-opacity="1"/></g><g id="svg_5" fill="#919191" fill-opacity="1"><g style="opacity:0.6;" id="svg_6" fill="#919191" fill-opacity="1"><g opacity="0.6" id="svg_7" fill="#919191" fill-opacity="1"><path d=" M 63.907 72 L 32.092 72 C 29.836 72 28 70.164 28 67.907 L 28 28.092 C 28 25.836 29.836 24 32.092 24 L 51.844 24 C 53.809 24 56.442 25.083 57.838 26.464 L 65.504 34.051 C 66.904 35.436 68 38.062 68 40.03 L 68 67.907 C 68 70.164 66.164 72 63.907 72 Z  M 32.092 26 C 30.938 26 30 26.938 30 28.092 L 30 67.907 C 30 69.062 30.938 70 32.092 70 L 63.907 70 C 65.062 70 66 69.062 66 67.907 L 66 40.03 C 66 38.605 65.111 36.476 64.099 35.473 L 56.433 27.886 C 55.417 26.881 53.273 26 51.845 26 L 32.092 26 Z " fill="#919191" id="svg_8" fill-opacity="1"/></g></g><path d=" M 57 37 L 67.179 37 L 55.179 25 L 55.179 34.988 C 55.179 35.913 56.057 37 57 37 Z " fill="#919191" id="svg_9" fill-opacity="1"/><g id="svg_10" fill="#919191" fill-opacity="1"><path d=" M 49 51.943 L 41.39 49.537 L 41.993 47.63 L 47 49.213 L 47 44 L 49 44 L 49 51.943 Z " fill="#919191" id="svg_11" fill-opacity="1"/><path d=" M 51.088 56.584 L 48 52.291 L 44.913 56.584 L 43.289 55.416 L 48 48.865 L 52.711 55.416 L 51.088 56.584 Z " fill="#919191" id="svg_12" fill-opacity="1"/><rect x="50.15399932861328" y="46.27199935913086" width="1.9989999532699585" height="6.616000175476074" transform="matrix(0.301,0.953,-0.953,0.301,83.011,-14.138)" fill="#919191" id="svg_13" fill-opacity="1"/></g></g></g></g></svg>