<?xml version="1.0" encoding="UTF-8" standalone="no"?>
<!-- Generator: Adobe Illustrator 9.0, SVG Export Plug-In  -->

<svg
   xmlns:dc="http://purl.org/dc/elements/1.1/"
   xmlns:cc="http://creativecommons.org/ns#"
   xmlns:rdf="http://www.w3.org/1999/02/22-rdf-syntax-ns#"
   xmlns:svg="http://www.w3.org/2000/svg"
   xmlns="http://www.w3.org/2000/svg"
   xmlns:sodipodi="http://sodipodi.sourceforge.net/DTD/sodipodi-0.dtd"
   xmlns:inkscape="http://www.inkscape.org/namespaces/inkscape"
   width="96"
   height="96"
   viewBox="0 0 96 96"
   xml:space="preserve"
   id="svg2"
   sodipodi:version="0.32"
   inkscape:version="0.91 r13725"
   sodipodi:docname="go-home.svg"
   version="1.0"><metadata
     id="metadata23"><rdf:RDF><cc:Work
         rdf:about=""><dc:format>image/svg+xml</dc:format><dc:type
           rdf:resource="http://purl.org/dc/dcmitype/StillImage" /><dc:title>Home Folder Icon</dc:title><dc:coverage /><dc:description>The user's $HOME directory</dc:description><cc:license
           rdf:resource="http://creativecommons.org/licenses/LGPL/2.1/" /><dc:subject><rdf:Bag><rdf:li>folder</rdf:li><rdf:li>directory</rdf:li><rdf:li>home</rdf:li><rdf:li>user</rdf:li></rdf:Bag></dc:subject></cc:Work><cc:License
         rdf:about="http://creativecommons.org/licenses/LGPL/2.1/"><cc:permits
           rdf:resource="http://web.resource.org/cc/Reproduction" /><cc:permits
           rdf:resource="http://web.resource.org/cc/Distribution" /><cc:requires
           rdf:resource="http://web.resource.org/cc/Notice" /><cc:permits
           rdf:resource="http://web.resource.org/cc/DerivativeWorks" /><cc:requires
           rdf:resource="http://web.resource.org/cc/ShareAlike" /><cc:requires
           rdf:resource="http://web.resource.org/cc/SourceCode" /></cc:License></rdf:RDF></metadata><defs
     id="defs21" /><sodipodi:namedview
     inkscape:window-height="876"
     inkscape:window-width="1547"
     inkscape:pageshadow="2"
     inkscape:pageopacity="0.0"
     borderopacity="1.0"
     bordercolor="#666666"
     pagecolor="#ffffff"
     id="base"
     showgrid="true"
     inkscape:grid-bbox="true"
     inkscape:grid-points="true"
     inkscape:zoom="8.331249"
     inkscape:cx="2.2029465"
     inkscape:cy="21.180502"
     inkscape:window-x="53"
     inkscape:window-y="24"
     inkscape:current-layer="svg2"
     showguides="true"
     inkscape:guide-bbox="true"
     inkscape:window-maximized="1" /><rect
     style="fill:none;stroke:none"
     id="rect1333"
     width="48"
     height="48"
     x="24"
     y="24"
     rx="0.046648435"
     ry="0" /><path
     sodipodi:nodetypes="csscccccccccsccccccccc"
     id="path2208"
     d="m 29,46 c 0,0 -1,0.6 -1,1 0,0.2 -0.1,0.8 0,1 0.3,0.6 1.3,1 2,1 0,0 0.9,0 2,0 0,2.4 0,14 0,14 0,1.1 1,2 2,2 l 28,0 c 1.1,0 2,-0.9 2,-2 0,0 0,-11.6 0,-14 1,0 2,0 2,0 0.8,0 1.7,-0.3 2,-1 0.1,-0.2 0,-0.8 0,-1 0,-0.5 -0.5,-0.6 -1,-1 0,0 -3.1,-2.3 -4,-3 0,-1.2 0,-9 0,-9 0,-1.2 -0.8,-2 -2,-2 l -6,0 c -1,0 -2,1 -2,2 -1.9,-1.6 -3.6,-3.3 -3.6,-3.3 0,0 -1.7,-0.7 -2.6,0 L 29,46 z"
     style="fill:#ffffff;fill-opacity:1;fill-rule:evenodd;stroke:#ffffff;stroke-width:8;stroke-miterlimit:4;stroke-opacity:1;stroke-dasharray:none"
     inkscape:connector-curvature="0" /><path
     style="fill:#bebebe;fill-rule:evenodd;stroke:none;fill-opacity:1"
     d="m 29,46 c 0,0 -1,0.6 -1,1 0,0.2 -0.1,0.8 0,1 0.3,0.6 1.3,1 2,1 0,0 0.9,0 2,0 0,2.4 0,14 0,14 0,1.1 1,2 2,2 l 28,0 c 1.1,0 2,-0.9 2,-2 0,0 0,-11.6 0,-14 1,0 2,0 2,0 0.8,0 1.7,-0.3 2,-1 0.1,-0.2 0,-0.8 0,-1 0,-0.5 -0.5,-0.6 -1,-1 0,0 -3.1,-2.3 -4,-3 0,-1.2 0,-9 0,-9 0,-1.2 -0.8,-2 -2,-2 l -6,0 c -1,0 -2,1 -2,2 -1.9,-1.6 -3.6,-3.3 -3.6,-3.3 l 0.1,0.1 C 48.8,30.1 47.7,30 46.8,30.7 L 29,46 z"
     id="path9"
     sodipodi:nodetypes="csscccccccccscccccccccc"
     inkscape:connector-curvature="0" /><path
     style="fill:#ffffff;fill-rule:evenodd;stroke:none"
     d="m 60,36 c 0,0 0,-1 -1,-1 l -2,0 c -1,0 -1,1 -1,1 l 0,1.8 3.9,2.9 L 60,36 z"
     id="path13"
     sodipodi:nodetypes="ccccccc"
     inkscape:connector-curvature="0" /><path
     style="fill:#ffffff;fill-rule:evenodd;stroke:none"
     d="m 36,49 0,12 24,0 0,-12 -24,0 z"
     id="path15"
     sodipodi:nodetypes="ccccc"
     inkscape:connector-curvature="0" /><g
     id="crop_x0020_marks"
     style="fill-rule:nonzero;stroke:#000000;stroke-miterlimit:4"
     transform="translate(24,24)"><path
       style="fill:none;stroke:none"
       d="M 48,48 0,48 0,0 48,0 48,48 z"
       id="path18"
       inkscape:connector-curvature="0" /></g><path
     style="opacity:1;fill:#a38d1c;fill-opacity:1;stroke:#000000;stroke-width:0.12003002"
     d="M 33.248762,64.784958 C 32.769192,64.575072 32.274617,63.976688 32.11971,63.41892 32.041,63.135503 31.995492,60.419952 31.995067,55.980786 l -6.69e-4,-6.991749 -1.058485,0 c -1.219328,0 -2.1263,-0.229414 -2.584022,-0.653617 -0.262773,-0.243529 -0.318484,-0.4001 -0.318484,-0.895068 l 0,-0.599906 0.990248,-0.82745 c 0.544636,-0.455097 4.744187,-4.056992 9.332334,-8.004211 4.588148,-3.947219 8.504127,-7.277323 8.702177,-7.400232 0.198049,-0.122909 0.540844,-0.257623 0.761765,-0.299365 0.760343,-0.143663 1.220933,0.117828 2.772049,1.573782 0.808591,0.758983 1.676597,1.543464 1.928901,1.743293 l 0.458734,0.363324 0.140363,-0.425306 c 0.0772,-0.233918 0.277189,-0.587913 0.444421,-0.786657 0.590848,-0.702182 0.658037,-0.71282 4.502433,-0.71282 4.038505,0 4.141683,0.02152 4.625244,0.964547 0.266431,0.519587 0.270118,0.590587 0.273772,5.27244 l 0.0037,4.74576 2.246857,1.655256 c 1.235773,0.910391 2.34977,1.726002 2.475552,1.81247 0.164607,0.113159 0.244409,0.346727 0.284775,0.833486 0.05258,0.634001 0.03287,0.697951 -0.315211,1.023111 -0.483031,0.451216 -1.179987,0.617163 -2.591998,0.617163 l -1.147148,0 0,7.304082 0,7.30408 -0.270068,0.396812 c -0.148537,0.218246 -0.422556,0.509804 -0.608929,0.647907 l -0.338863,0.251097 -14.54486,0.02607 c -11.908741,0.02135 -14.611202,-0.003 -14.910902,-0.134128 z m 26.832661,-9.79442 0,-6.001501 -12.063017,0 -12.063017,0 0,6.001501 0,6.001501 12.063017,0 12.063017,0 0,-6.001501 z m -0.09141,-16.174045 c 0.05234,-3.456942 0.0693,-3.258995 -0.307044,-3.582716 -0.311739,-0.268147 -0.431306,-0.288252 -1.714222,-0.288252 -1.304198,0 -1.39511,0.016 -1.673726,0.294619 -0.273586,0.273585 -0.294248,0.378561 -0.289414,1.470368 l 0.0052,1.175748 1.885267,1.400115 c 1.036898,0.770063 1.925778,1.404722 1.97529,1.410353 0.04951,0.0056 0.102902,-0.840475 0.118644,-1.880235 l -4e-6,0 z"
     id="path3339"
     inkscape:connector-curvature="0" /></svg>