<?xml version="1.0" encoding="UTF-8" standalone="no"?>
<!-- Generator: Adobe Illustrator 9.0, SVG Export Plug-In  -->

<svg
   xmlns:dc="http://purl.org/dc/elements/1.1/"
   xmlns:cc="http://creativecommons.org/ns#"
   xmlns:rdf="http://www.w3.org/1999/02/22-rdf-syntax-ns#"
   xmlns:svg="http://www.w3.org/2000/svg"
   xmlns="http://www.w3.org/2000/svg"
   xmlns:sodipodi="http://sodipodi.sourceforge.net/DTD/sodipodi-0.dtd"
   xmlns:inkscape="http://www.inkscape.org/namespaces/inkscape"
   width="96"
   height="96"
   viewBox="0 0 96 96"
   xml:space="preserve"
   id="svg2"
   sodipodi:version="0.32"
   inkscape:version="0.91 r13725"
   sodipodi:docname="go-next.svg"
   version="1.1"><metadata
     id="metadata17"><rdf:RDF><cc:Work
         rdf:about=""><dc:format>image/svg+xml</dc:format><dc:type
           rdf:resource="http://purl.org/dc/dcmitype/StillImage" /></cc:Work></rdf:RDF></metadata><defs
     id="defs15" /><sodipodi:namedview
     inkscape:window-height="876"
     inkscape:window-width="1547"
     inkscape:pageshadow="2"
     inkscape:pageopacity="0.0"
     borderopacity="1.0"
     bordercolor="#666666"
     pagecolor="#ffffff"
     id="base"
     showgrid="true"
     inkscape:grid-bbox="true"
     inkscape:grid-points="true"
     inkscape:zoom="12.334239"
     inkscape:cx="2.1743419"
     inkscape:cy="50.441259"
     inkscape:window-x="53"
     inkscape:window-y="24"
     inkscape:current-layer="svg2"
     inkscape:window-maximized="1" /><rect
     style="fill:none;stroke:none"
     id="rect3313"
     width="48"
     height="48"
     x="24"
     y="24" /><g
     id="g5500"
     transform="matrix(0,1,-1,0,72.13761,24.112392)"><path
       style="fill-rule:nonzero;stroke:#ffffff;stroke-width:8;stroke-miterlimit:4;stroke-opacity:1;stroke-dasharray:none"
       d="m 41,26 c 0.3,0 0.588189,-0.532283 0,-1 L 25,9 C 24,8 24,8 23,9 L 7,25 c -0.5984252,0.425197 -0.2,1 0,1 l 10,0 0,13 c 0,0 0,1 1,1 l 12,0 c 1,0 1,-1 1,-1 l 0,-13 10,0 z"
       id="path4046"
       sodipodi:nodetypes="ccccccccccccc"
       inkscape:connector-curvature="0" /><path
       sodipodi:nodetypes="ccccccccccccc"
       id="path9"
       d="m 41,26 c 0.3,0 0.588189,-0.532283 0,-1 L 25,9 C 24,8 24,8 23,9 L 7,25 c -0.5984252,0.425197 -0.2,1 0,1 l 10,0 0,13 c 0,0 0,1 1,1 l 12,0 c 1,0 1,-1 1,-1 l 0,-13 10,0 z"
       style="fill-rule:nonzero;stroke:none"
       inkscape:connector-curvature="0" /></g><path
     style="fill:#bebebe;stroke:none;stroke-width:1px;stroke-linecap:butt;stroke-linejoin:miter;stroke-opacity:1;fill-opacity:1"
     d="m 46.267144,65.285522 c -0.04407,-0.04407 -0.08013,-2.369696 -0.08013,-5.168064 l 0,-5.087939 -6.730503,0 c -6.570252,0 -6.736225,-0.0057 -6.970877,-0.240375 -0.234384,-0.234385 -0.240375,-0.400624 -0.240375,-6.670408 0,-6.269783 0.006,-6.436024 0.240375,-6.670408 0.234651,-0.234651 0.400625,-0.240376 6.969587,-0.240376 l 6.729212,0 0.03134,-5.138017 0.03134,-5.138017 0.300469,-0.03409 c 0.254501,-0.02887 1.601357,1.267978 8.803738,8.476862 5.394277,5.399148 8.503268,8.595957 8.503268,8.743455 0,0.33413 -16.922904,17.247998 -17.256927,17.247713 -0.137716,-1.18e-4 -0.286448,-0.03627 -0.330516,-0.08034 z"
     id="path3336"
     inkscape:connector-curvature="0" /></svg>