<?xml version="1.0" encoding="UTF-8" standalone="no"?>
<!-- Generator: Adobe Illustrator 9.0, SVG Export Plug-In  -->

<svg
   xmlns:dc="http://purl.org/dc/elements/1.1/"
   xmlns:cc="http://creativecommons.org/ns#"
   xmlns:rdf="http://www.w3.org/1999/02/22-rdf-syntax-ns#"
   xmlns:svg="http://www.w3.org/2000/svg"
   xmlns="http://www.w3.org/2000/svg"
   xmlns:sodipodi="http://sodipodi.sourceforge.net/DTD/sodipodi-0.dtd"
   xmlns:inkscape="http://www.inkscape.org/namespaces/inkscape"
   width="96"
   height="96"
   viewBox="0 0 96 96"
   xml:space="preserve"
   id="svg2"
   sodipodi:version="0.32"
   inkscape:version="0.91 r13725"
   sodipodi:docname="go-previous.svg"
   version="1.1"><metadata
     id="metadata17"><rdf:RDF><cc:Work
         rdf:about=""><dc:format>image/svg+xml</dc:format><dc:type
           rdf:resource="http://purl.org/dc/dcmitype/StillImage" /></cc:Work></rdf:RDF></metadata><defs
     id="defs15" /><sodipodi:namedview
     inkscape:window-height="876"
     inkscape:window-width="1547"
     inkscape:pageshadow="2"
     inkscape:pageopacity="0.0"
     borderopacity="1.0"
     bordercolor="#666666"
     pagecolor="#ffffff"
     id="base"
     showgrid="true"
     inkscape:grid-bbox="true"
     inkscape:grid-points="true"
     inkscape:zoom="8.7216242"
     inkscape:cx="-20.472441"
     inkscape:cy="24"
     inkscape:window-x="53"
     inkscape:window-y="24"
     inkscape:current-layer="svg2"
     inkscape:window-maximized="1" /><rect
     style="fill:none;stroke:none"
     id="rect3313"
     width="48"
     height="48"
     x="24"
     y="24" /><g
     id="g5500"
     transform="matrix(0,1,1,0,23.887608,24.112392)"><path
       style="fill-rule:nonzero;stroke:#ffffff;stroke-width:8;stroke-miterlimit:4;stroke-opacity:1;stroke-dasharray:none"
       d="m 41,26 c 0.3,0 0.588189,-0.532283 0,-1 L 25,9 C 24,8 24,8 23,9 L 7,25 c -0.5984252,0.425197 -0.2,1 0,1 l 10,0 0,13 c 0,0 0,1 1,1 l 12,0 c 1,0 1,-1 1,-1 l 0,-13 10,0 z"
       id="path4046"
       sodipodi:nodetypes="ccccccccccccc"
       inkscape:connector-curvature="0" /><path
       sodipodi:nodetypes="ccccccccccccc"
       id="path9"
       d="m 41,26 c 0.3,0 0.588189,-0.532283 0,-1 L 25,9 C 24,8 24,8 23,9 L 7,25 c -0.5984252,0.425197 -0.2,1 0,1 l 10,0 0,13 c 0,0 0,1 1,1 l 12,0 c 1,0 1,-1 1,-1 l 0,-13 10,0 z"
       style="fill-rule:nonzero;stroke:none"
       inkscape:connector-curvature="0" /></g><path
     style="fill:#bebebe;stroke:none;stroke-width:1px;stroke-linecap:butt;stroke-linejoin:miter;stroke-opacity:1;fill-opacity:1"
     d="m 40.703101,56.870594 c -4.647821,-4.656601 -8.450585,-8.576838 -8.450585,-8.711637 0,-0.364861 17.091337,-17.392755 17.317353,-17.25307 0.132713,0.08202 0.189645,1.64495 0.189645,5.206301 l 0,5.089094 6.789196,0 6.789195,0 0.264595,0.377761 c 0.227637,0.324999 0.264594,1.236366 0.264594,6.525048 0,5.604194 -0.02628,6.179071 -0.297449,6.507046 -0.292629,0.353931 -0.406235,0.360432 -7.011297,0.401264 l -6.713849,0.04151 -0.04498,5.141619 c -0.04187,4.785876 -0.06577,5.141618 -0.345407,5.141618 -0.170127,0 -3.965492,-3.671994 -8.751007,-8.466549 z"
     id="path3336"
     inkscape:connector-curvature="0" /></svg>