<?xml version="1.0" encoding="UTF-8" standalone="no"?>
<!-- Generator: Adobe Illustrator 9.0, SVG Export Plug-In  -->

<svg
   xmlns:dc="http://purl.org/dc/elements/1.1/"
   xmlns:cc="http://creativecommons.org/ns#"
   xmlns:rdf="http://www.w3.org/1999/02/22-rdf-syntax-ns#"
   xmlns:svg="http://www.w3.org/2000/svg"
   xmlns="http://www.w3.org/2000/svg"
   xmlns:sodipodi="http://sodipodi.sourceforge.net/DTD/sodipodi-0.dtd"
   xmlns:inkscape="http://www.inkscape.org/namespaces/inkscape"
   width="96"
   height="96"
   viewBox="0 0 96 96"
   xml:space="preserve"
   id="svg2"
   sodipodi:version="0.32"
   inkscape:version="0.91 r13725"
   sodipodi:docname="go-up.svg"
   version="1.1"><metadata
     id="metadata17"><rdf:RDF><cc:Work
         rdf:about=""><dc:format>image/svg+xml</dc:format><dc:type
           rdf:resource="http://purl.org/dc/dcmitype/StillImage" /></cc:Work></rdf:RDF></metadata><defs
     id="defs15" /><sodipodi:namedview
     inkscape:window-height="743"
     inkscape:window-width="1280"
     inkscape:pageshadow="2"
     inkscape:pageopacity="0.0"
     borderopacity="1.0"
     bordercolor="#666666"
     pagecolor="#ffffff"
     id="base"
     showgrid="true"
     inkscape:grid-bbox="true"
     inkscape:grid-points="true"
     inkscape:zoom="5.6126601"
     inkscape:cx="-7.4467645"
     inkscape:cy="31.817888"
     inkscape:window-x="63"
     inkscape:window-y="34"
     inkscape:current-layer="svg2"
     inkscape:window-maximized="0" /><rect
     style="fill:none;stroke:none"
     id="rect3313"
     width="48"
     height="48"
     x="24"
     y="24" /><g
     id="g3755"><path
       style="fill:#bebebe;fill-opacity:1;fill-rule:nonzero;stroke:#ffffff;stroke-width:4;stroke-miterlimit:4;stroke-opacity:1;stroke-dasharray:none"
       d="m 65,50 c 0.3,0 0.588189,-0.532283 0,-1 L 49,33 c -1,-1 -1,-1 -2,0 L 31,49 c -0.598425,0.425197 -0.2,1 0,1 l 10,0 0,13 c 0,0 0,1 1,1 l 12,0 c 1,0 1,-1 1,-1 l 0,-13 10,0 z"
       id="path4046"
       sodipodi:nodetypes="ccccccccccccc"
       inkscape:connector-curvature="0" /><path
       sodipodi:nodetypes="ccccccccccccc"
       id="path9"
       d="m 65,50 c 0.3,0 0.588189,-0.532283 0,-1 L 49,33 c -1,-1 -1,-1 -2,0 L 31,49 c -0.598425,0.425197 -0.2,1 0,1 l 10,0 0,13 c 0,0 0,1 1,1 l 12,0 c 1,0 1,-1 1,-1 l 0,-13 10,0 z"
       style="fill:#bebebe;fill-opacity:1;fill-rule:nonzero;stroke:none"
       inkscape:connector-curvature="0" /></g><path
     style="opacity:1;fill:#a38d1c;fill-opacity:1;stroke:#000000;stroke-width:0.17816864"
     d="M 41.313082,63.566994 C 41.11755,63.331571 41.058389,61.939325 41.017816,56.618417 l -0.05074,-6.654162 -5.071609,0 c -4.73826,0 -5.071608,-0.02078 -5.071608,-0.316204 0,-0.296043 16.688264,-17.151885 17.128054,-17.300047 0.282532,-0.09518 17.258493,16.925303 17.258493,17.30376 0,0.290692 -0.360437,0.312491 -5.166891,0.312491 l -5.16689,0 0,6.734774 c 0,5.000601 -0.05505,6.789827 -0.213803,6.948577 -0.158411,0.158412 -1.883739,0.213802 -6.659508,0.213802 -5.776374,0 -6.471097,-0.03057 -6.690232,-0.294414 z"
     id="path3336"
     inkscape:connector-curvature="0" /></svg>