<?xml version="1.0" encoding="UTF-8" standalone="no"?>
<!-- Created with Inkscape (http://www.inkscape.org/) -->

<svg
   xmlns:dc="http://purl.org/dc/elements/1.1/"
   xmlns:cc="http://creativecommons.org/ns#"
   xmlns:rdf="http://www.w3.org/1999/02/22-rdf-syntax-ns#"
   xmlns:svg="http://www.w3.org/2000/svg"
   xmlns="http://www.w3.org/2000/svg"
   xmlns:sodipodi="http://sodipodi.sourceforge.net/DTD/sodipodi-0.dtd"
   xmlns:inkscape="http://www.inkscape.org/namespaces/inkscape"
   width="96"
   height="96"
   id="svg1307"
   sodipodi:version="0.32"
   inkscape:version="0.91 r13725"
   sodipodi:docname="image-x-generic.svg"
   inkscape:output_extension="org.inkscape.output.svg.inkscape"
   sodipodi:modified="true"
   version="1.1">
  <defs
     id="defs1309" />
  <sodipodi:namedview
     id="base"
     pagecolor="#ffffff"
     bordercolor="#666666"
     borderopacity="1.0"
     inkscape:pageopacity="0.0"
     inkscape:pageshadow="2"
     inkscape:zoom="2.8505242"
     inkscape:cx="-49.735933"
     inkscape:cy="54.761502"
     inkscape:current-layer="layer1"
     showgrid="true"
     inkscape:grid-bbox="true"
     inkscape:document-units="px"
     inkscape:window-width="1274"
     inkscape:window-height="743"
     inkscape:window-x="63"
     inkscape:window-y="34"
     inkscape:window-maximized="0" />
  <metadata
     id="metadata1312">
    <rdf:RDF>
      <cc:Work
         rdf:about="">
        <dc:format>image/svg+xml</dc:format>
        <dc:type
           rdf:resource="http://purl.org/dc/dcmitype/StillImage" />
      </cc:Work>
    </rdf:RDF>
  </metadata>
  <g
     id="layer1"
     inkscape:label="Layer 1"
     inkscape:groupmode="layer"
     transform="translate(0,48)">
    <rect
       ry="3.0078366"
       rx="3.1318679"
       y="-17"
       x="28"
       height="34"
       width="40"
       id="rect6561"
       style="fill:#000000;fill-opacity:1;fill-rule:evenodd;stroke:#ffffff;stroke-width:4;stroke-linecap:round;stroke-linejoin:round;stroke-miterlimit:4;stroke-opacity:1;stroke-dasharray:none" />
    <rect
       style="fill:#bebebe;fill-opacity:1;fill-rule:evenodd;stroke:none"
       id="rect1315"
       width="40"
       height="34"
       x="28"
       y="-17"
       rx="3.4419453"
       ry="3.3179142" />
    <rect
       ry="1.3954337"
       rx="1.4574491"
       y="-13"
       x="32"
       height="26"
       width="31.999998"
       id="rect6622"
       style="fill:#ffffff;fill-opacity:1;fill-rule:evenodd;stroke:none" />
    <path
       style="fill:#bebebe;fill-opacity:1;fill-rule:evenodd;stroke:none"
       d="M 28.062015,9.062016 37,-2 c 1.643411,-1.79845 2.790698,-0.992248 4,0 l 8,9 c 3.093023,3.108527 -1.007752,6.093023 -3,3 L 39,2 29.488372,13.945736"
       id="path2188"
       sodipodi:nodetypes="ccccccc"
       inkscape:connector-curvature="0" />
    <path
       sodipodi:nodetypes="ccccccc"
       id="path3962"
       d="m 43.828527,1.121775 10.240311,-9.201551 c 1.643411,-1.79845 2.790698,-0.992248 4,0 l 7.813953,6.147287 c 3.093023,3.108527 -1.007752,6.093023 -3,3 L 56.068838,-4.079776 44.882791,6.067511"
       style="fill:#bebebe;fill-opacity:1;fill-rule:evenodd;stroke:none"
       inkscape:connector-curvature="0" />
    <path
       style="opacity:1;fill:#a38d1c;fill-opacity:1;stroke:#000000;stroke-width:0.35081267"
       d="m 29.670507,64.434193 c -1.598861,-0.931251 -1.666353,-1.587995 -1.666353,-16.214915 0,-9.211334 0.129713,-14.194266 0.388847,-14.937619 0.753491,-2.161465 0.617396,-2.146566 19.607475,-2.146566 18.990079,0 18.853985,-0.0149 19.607475,2.146566 0.258798,0.742381 0.388847,5.677604 0.388847,14.756059 0,14.507265 -0.107506,15.543368 -1.701301,16.396341 -0.951523,0.50924 -35.750689,0.509367 -36.62499,1.34e-4 z m 34.046377,-3.900998 c 0.287961,-0.28796 0.420975,-1.997502 0.420975,-5.410471 l 0,-4.989495 -1.841766,-1.544477 C 61.283121,47.73929 59.465136,46.295118 58.256126,45.379483 l -2.1982,-1.664792 -4.116428,3.758973 c -2.264035,2.067435 -4.395019,4.019174 -4.735518,4.337197 -0.587156,0.548397 -0.538585,0.672539 0.941574,2.40659 1.809219,2.119555 2.14325,2.928198 1.616294,3.912824 -0.436176,0.815004 -1.830782,1.272681 -2.554645,0.838375 -0.270207,-0.162119 -2.181724,-2.228617 -4.247817,-4.592218 -2.066093,-2.3636 -3.869238,-4.289765 -4.006989,-4.280367 -0.515001,0.03514 -7.091303,8.701966 -7.091303,9.345544 0,1.498821 0.146591,1.512561 16.137382,1.512561 11.428698,0 15.401855,-0.106424 15.716408,-0.420975 z M 34.985925,48.675727 c 3.619003,-4.421873 4.032815,-4.505485 6.958072,-1.405895 1.091196,1.156228 2.071508,1.98112 2.17847,1.833093 0.507833,-0.7028 10.468008,-9.494137 11.186008,-9.873318 0.944842,-0.498977 1.658028,-0.101198 5.847476,3.261422 1.350629,1.084069 2.574088,1.971915 2.718799,1.97299 0.459308,0.0034 0.309539,-8.581607 -0.157866,-9.049011 -0.605587,-0.605589 -30.827227,-0.605589 -31.432815,0 -0.303335,0.303335 -0.420975,2.705155 -0.420975,8.59491 0,4.495664 0.05663,8.173935 0.125834,8.173935 0.06921,0 1.417857,-1.578657 2.996997,-3.508126 z"
       id="path3338"
       inkscape:connector-curvature="0"
       transform="translate(0,-48)" />
  </g>
</svg>
