<?xml version="1.0" encoding="UTF-8" standalone="no"?>
<!-- Created with Inkscape (http://www.inkscape.org/) -->

<svg
   xmlns:dc="http://purl.org/dc/elements/1.1/"
   xmlns:cc="http://creativecommons.org/ns#"
   xmlns:rdf="http://www.w3.org/1999/02/22-rdf-syntax-ns#"
   xmlns:svg="http://www.w3.org/2000/svg"
   xmlns="http://www.w3.org/2000/svg"
   xmlns:sodipodi="http://sodipodi.sourceforge.net/DTD/sodipodi-0.dtd"
   xmlns:inkscape="http://www.inkscape.org/namespaces/inkscape"
   width="48.000000px"
   height="48.000000px"
   id="svg3304"
   sodipodi:version="0.32"
   inkscape:version="0.91 r13725"
   sodipodi:docname="media-playback-start.svg"
   version="1.1">
  <defs
     id="defs3306" />
  <sodipodi:namedview
     id="base"
     pagecolor="#ffffff"
     bordercolor="#666666"
     borderopacity="1.0"
     inkscape:pageopacity="0.0"
     inkscape:pageshadow="2"
     inkscape:zoom="21.309814"
     inkscape:cx="24"
     inkscape:cy="24"
     inkscape:current-layer="layer1"
     showgrid="true"
     inkscape:grid-bbox="true"
     inkscape:document-units="px"
     inkscape:grid-points="true"
     inkscape:window-width="1547"
     inkscape:window-height="876"
     inkscape:window-x="53"
     inkscape:window-y="24"
     inkscape:window-maximized="1" />
  <metadata
     id="metadata3309">
    <rdf:RDF>
      <cc:Work
         rdf:about="">
        <dc:format>image/svg+xml</dc:format>
        <dc:type
           rdf:resource="http://purl.org/dc/dcmitype/StillImage" />
      </cc:Work>
    </rdf:RDF>
  </metadata>
  <g
     id="layer1"
     inkscape:label="Layer 1"
     inkscape:groupmode="layer">
    <g
       id="g6359"
       transform="matrix(0.000000,1.000000,-1.000000,0.000000,47.00000,0.000000)">
      <path
         style="fill:#ffffff;fill-opacity:1.0000000;fill-rule:evenodd;stroke:#ffffff;stroke-width:12.000000;stroke-linecap:round;stroke-linejoin:round;stroke-miterlimit:4.0000000;stroke-dasharray:none;stroke-opacity:1.0000000"
         d="M 7.0000000,33.000000 L 41.000000,33.000000 L 24.000000,14.000000 L 7.0000000,33.000000 z "
         id="path5631"
         sodipodi:nodetypes="cccc" />
      <path
         sodipodi:nodetypes="cccc"
         id="path4903"
         d="M 7.0000000,33.000000 L 41.000000,33.000000 L 24.000000,14.000000 L 7.0000000,33.000000 z "
         style="fill:#000000;fill-opacity:1.0000000;fill-rule:evenodd;stroke:#000000;stroke-width:4.0000000;stroke-linecap:round;stroke-linejoin:round;stroke-miterlimit:4.0000000;stroke-dasharray:none;stroke-opacity:1.0000000" />
    </g>
    <path
       style="fill:#bebebe;stroke:none;stroke-width:1px;stroke-linecap:butt;stroke-linejoin:miter;stroke-opacity:1;fill-opacity:1"
       d="m 13.672132,42.947151 c -0.606004,-0.101886 -1.187289,-0.546339 -1.455757,-1.11308 l -0.149844,-0.316321 0,-17.527135 0,-17.5271356 0.127107,-0.2712763 c 0.163331,-0.3485888 0.577438,-0.7821215 0.896135,-0.938172 0.375109,-0.183673 0.650357,-0.2379168 1.063548,-0.209596 0.723424,0.049584 -0.01642,-0.5725682 10.426382,8.7678309 5.196697,4.648104 9.581545,8.581047 9.744108,8.739872 0.733945,0.71707 0.858751,1.703616 0.320371,2.532411 -0.176448,0.271629 -19.335428,17.437228 -19.691786,17.64297 -0.214973,0.124114 -0.758716,0.272272 -0.961868,0.262089 -0.05162,-0.0026 -0.194898,-0.02169 -0.318396,-0.04246 z"
       id="path3336"
       inkscape:connector-curvature="0" />
    <path
       style="opacity:1;fill:#a38d1c;fill-opacity:1;stroke:#000000;stroke-width:0.04692674"
       d="m 13.55793,42.903514 c -0.496305,-0.11795 -1.050309,-0.568427 -1.318977,-1.072499 l -0.148958,-0.279475 0,-17.570255 0,-17.570254 0.167045,-0.2787997 c 0.23648,-0.394689 0.558248,-0.7052879 0.911182,-0.8795544 0.272818,-0.1347085 0.358106,-0.1524754 0.833035,-0.1735366 0.291005,-0.012905 0.53434,-0.012905 0.540745,0 0.0064,0.012905 0.130387,0.1010873 0.275515,0.1959609 0.645088,0.4217098 1.170938,0.8839118 10.505817,9.2342148 7.263506,6.497404 8.998039,8.060558 9.169937,8.263917 0.0751,0.08884 0.201799,0.298791 0.28156,0.466554 0.132073,0.277791 0.14502,0.34692 0.14502,0.774291 0,0.67954 -0.111332,0.90224 -0.743196,1.486636 -3.131685,2.896422 -18.576236,16.71028 -19.149744,17.127845 -0.356532,0.259586 -1.015028,0.382839 -1.468981,0.274955 z"
       id="path3337"
       inkscape:connector-curvature="0" />
  </g>
</svg>
