<?xml version="1.0" encoding="UTF-8" standalone="no"?><!-- Generator: Gravit.io --><svg xmlns="http://www.w3.org/2000/svg" xmlns:xlink="http://www.w3.org/1999/xlink" style="isolation:isolate" viewBox="0 0 96 96" width="96pt" height="96pt"><defs><clipPath id="_clipPath_XFnVmqPs3LAxZeuIK6PBDfYW4mcTgfo4"><rect width="96" height="96"/></clipPath></defs><g clip-path="url(#_clipPath_XFnVmqPs3LAxZeuIK6PBDfYW4mcTgfo4)"><g opacity="0"><rect x="0" y="0" width="64" height="64" transform="matrix(1,0,0,1,0,0)" fill="rgb(255,255,255)"/></g><g><g opacity="0.2"><circle vector-effect="non-scaling-stroke" cx="48" cy="48" r="30" fill="rgb(255,255,255)"/></g><g style="opacity:0.6;"><g style="opacity:0.6;"><g opacity="0.6"><path d=" M 37.916 58 C 37.916 59.1 38.816 60 39.916 60 L 42.916 60 C 44.016 60 44.916 59.1 44.916 58 L 44.916 38 C 44.916 36.9 44.016 36 42.916 36 L 39.916 36 C 38.816 36 37.916 36.9 37.916 38 L 37.916 58 Z " fill="rgb(255,255,255)"/></g></g><g style="opacity:0.6;"><g opacity="0.6"><path d=" M 52.916 36 C 51.816 36 50.916 36.9 50.916 38 L 50.916 58 C 50.916 59.1 51.816 60 52.916 60 L 55.916 60 C 57.016 60 57.916 59.1 57.916 58 L 57.916 38 C 57.916 36.9 57.016 36 55.916 36 L 52.916 36 Z " fill="rgb(255,255,255)"/></g></g></g></g></g></svg>