<?xml version="1.0" encoding="UTF-8" standalone="no"?>
<!-- Generator: Adobe Illustrator 9.0, SVG Export Plug-In  -->

<svg
   xmlns:dc="http://purl.org/dc/elements/1.1/"
   xmlns:cc="http://creativecommons.org/ns#"
   xmlns:rdf="http://www.w3.org/1999/02/22-rdf-syntax-ns#"
   xmlns:svg="http://www.w3.org/2000/svg"
   xmlns="http://www.w3.org/2000/svg"
   xmlns:sodipodi="http://sodipodi.sourceforge.net/DTD/sodipodi-0.dtd"
   xmlns:inkscape="http://www.inkscape.org/namespaces/inkscape"
   width="96"
   height="96"
   viewBox="0 0 96 96"
   xml:space="preserve"
   id="svg2"
   sodipodi:version="0.32"
   inkscape:version="0.91 r13725"
   sodipodi:docname="media-flash.svg"
   version="1.0"><metadata
     id="metadata25"><rdf:RDF><cc:Work
         rdf:about=""><dc:format>image/svg+xml</dc:format><dc:type
           rdf:resource="http://purl.org/dc/dcmitype/StillImage" /><dc:title>Media Flash</dc:title><dc:creator><cc:Agent><dc:title>Luca Ferretti &lt;elle.uca@libero.it&gt;</dc:title></cc:Agent></dc:creator><dc:subject><rdf:Bag><rdf:li>media flash removable</rdf:li></rdf:Bag></dc:subject><dc:description>A flash removable media, such as SD</dc:description><cc:license
           rdf:resource="http://creativecommons.org/licenses/LGPL/2.1/" /></cc:Work><cc:License
         rdf:about="http://creativecommons.org/licenses/LGPL/2.1/"><cc:permits
           rdf:resource="http://web.resource.org/cc/Reproduction" /><cc:permits
           rdf:resource="http://web.resource.org/cc/Distribution" /><cc:requires
           rdf:resource="http://web.resource.org/cc/Notice" /><cc:permits
           rdf:resource="http://web.resource.org/cc/DerivativeWorks" /><cc:requires
           rdf:resource="http://web.resource.org/cc/ShareAlike" /><cc:requires
           rdf:resource="http://web.resource.org/cc/SourceCode" /></cc:License></rdf:RDF></metadata><defs
     id="defs23" /><sodipodi:namedview
     inkscape:window-height="743"
     inkscape:window-width="1270"
     inkscape:pageshadow="2"
     inkscape:pageopacity="0.0"
     borderopacity="1.0"
     bordercolor="#666666"
     pagecolor="#ffffff"
     id="base"
     showgrid="true"
     inkscape:grid-bbox="true"
     inkscape:grid-points="true"
     inkscape:zoom="3.8125"
     inkscape:cx="-22.295082"
     inkscape:cy="24.486455"
     inkscape:window-x="63"
     inkscape:window-y="34"
     inkscape:current-layer="svg2"
     inkscape:window-maximized="0" /><path
     sodipodi:nodetypes="cccccc"
     id="path4837"
     d="m 32,60 0,-20 4,-4 28,0 0,24 -32,0 z"
     style="fill:none;stroke:#ffffff;stroke-width:10;stroke-linecap:round;stroke-linejoin:round;stroke-miterlimit:4;stroke-opacity:1;stroke-dasharray:none"
     inkscape:connector-curvature="0" /><path
     style="fill:#bebebe;fill-opacity:1;fill-rule:nonzero;stroke:#bebebe;stroke-width:6;stroke-linecap:round;stroke-linejoin:round;stroke-miterlimit:4;stroke-dasharray:none;stroke-opacity:1"
     d="m 32,60 0,-20 4,-4 28,0 0,24 -32,0 z"
     id="path9"
     sodipodi:nodetypes="cccccc"
     inkscape:connector-curvature="0" /><path
     style="fill:#ffffff;fill-opacity:1;fill-rule:evenodd;stroke:none"
     d="m 62.622951,45 0,-8 -7,4 7,4 z"
     id="path2776"
     inkscape:connector-curvature="0" /><path
     style="fill:none;stroke:#ffffff;stroke-width:4;stroke-linecap:butt;stroke-linejoin:miter;stroke-miterlimit:4;stroke-opacity:1;stroke-dasharray:none"
     d="m 35,39 6,0"
     id="path4548"
     sodipodi:nodetypes="cc"
     inkscape:connector-curvature="0" /><path
     id="path5435"
     d="m 35,45 6,0"
     style="fill:none;stroke:#ffffff;stroke-width:4;stroke-linecap:butt;stroke-linejoin:miter;stroke-miterlimit:4;stroke-opacity:1;stroke-dasharray:none"
     sodipodi:nodetypes="cc"
     inkscape:connector-curvature="0" /><path
     style="fill:none;stroke:#ffffff;stroke-width:4;stroke-linecap:butt;stroke-linejoin:miter;stroke-miterlimit:4;stroke-opacity:1;stroke-dasharray:none"
     d="m 35,51 6,0"
     id="path5437"
     sodipodi:nodetypes="cc"
     inkscape:connector-curvature="0" /><path
     id="path5439"
     d="m 35,57 6,0"
     style="fill:none;stroke:#ffffff;stroke-width:4;stroke-linecap:butt;stroke-linejoin:miter;stroke-miterlimit:4;stroke-opacity:1;stroke-dasharray:none"
     sodipodi:nodetypes="cc"
     inkscape:connector-curvature="0" /><path
     style="opacity:1;fill:#a38d1c;fill-opacity:1;stroke:#000000;stroke-width:0.26229507"
     d="m 30.484015,62.418901 c -1.4255,-0.874888 -1.445438,-1.062303 -1.364722,-12.828271 l 0.07415,-10.808925 2.821023,-2.820966 2.821022,-2.820964 14.490453,-0.08056 c 9.842927,-0.05472 14.801411,0.0104 15.459987,0.203034 0.533246,0.155976 1.211934,0.591752 1.508197,0.968391 0.52699,0.669959 0.538662,0.968107 0.538662,13.76004 l 0,13.075244 -0.765272,0.856596 -0.765272,0.856598 -17.00522,0.06778 c -16.281381,0.06489 -17.039604,0.04668 -17.813008,-0.427995 z m 10.589313,-5.475848 -0.07661,-2.032787 -3.016393,0 -3.016394,0 -0.07661,2.032787 -0.07661,2.032787 3.169608,0 3.169607,0 -0.07661,-2.032787 z m 0,-5.901639 0.07661,-2.032787 -3.158574,0 -3.158574,0 0,1.923497 c 0,1.057924 0.08234,2.005834 0.182969,2.106467 0.100633,0.100633 1.487518,0.149813 3.081967,0.109289 l 2.898998,-0.07368 0.07661,-2.032787 z m 0.05454,-5.967213 0,-2.098361 -3.147541,0 -3.147541,0 0,1.923497 c 0,1.057924 0.07869,2.002186 0.174863,2.098361 0.09618,0.09618 1.512568,0.174863 3.147541,0.174863 l 2.972678,0 0,-2.09836 z m 21.453432,-6.002878 -0.07638,-2.09336 -3.300685,1.884184 c -1.815375,1.036302 -3.349802,1.974192 -3.409836,2.084201 -0.06003,0.110009 1.425275,1.07596 3.300685,2.146558 l 3.409836,1.946543 0.07638,-1.937383 c 0.04201,-1.065561 0.04201,-2.879395 0,-4.030743 z m -21.453432,-0.02991 0,-2.098361 -3.147541,0 -3.147541,0 0,2.098361 0,2.098361 3.147541,0 3.147541,0 0,-2.098361 z"
     id="path3339"
     inkscape:connector-curvature="0" /></svg>