<?xml version="1.0" encoding="UTF-8" standalone="no"?><!-- Generator: Gravit.io --><svg xmlns="http://www.w3.org/2000/svg" xmlns:xlink="http://www.w3.org/1999/xlink" style="isolation:isolate" viewBox="0 0 96 96" width="96pt" height="96pt"><defs><clipPath id="_clipPath_ymH5iSItclsWkzZn4jSXgRsW6CFC6uGX"><rect width="96" height="96"/></clipPath></defs><g clip-path="url(#_clipPath_ymH5iSItclsWkzZn4jSXgRsW6CFC6uGX)"><g><g><g style="opacity:0.6;"><g opacity="0.6"><path d=" M 39.091 37 L 25 37 L 25 30.5 C 25 28.668 26.6 27 28.357 27 L 38.993 27 C 40.96 27 42.802 27.854 43.841 29.238 L 47.298 31.994 L 43.795 34.829 C 42.785 36.171 40.999 37 39.091 37 Z " fill="rgb(255,255,255)"/></g></g><path d=" M 67.75 69 L 28.25 69 C 26.458 69 25 67.542 25 65.75 L 25 36.875 C 25 35.841 25.841 35 26.875 35 L 35.515 35 C 37.646 35 40.789 34.559 41.311 34.26 C 41.913 33.774 43.028 32.875 43.752 32.289 C 44.787 31.452 47.37 30.999 49.276 30.999 L 67.792 30.999 C 69.561 31 71 32.439 71 34.208 L 71 65.75 C 71 67.542 69.542 69 67.75 69 Z  M 27 37 L 27 65.75 C 27 66.439 27.561 67 28.25 67 L 67.75 67 C 68.439 67 69 66.439 69 65.75 L 69 34.208 C 69 33.542 68.458 33 67.792 33 L 49.276 33 C 47.309 33 45.435 33.5 45.01 33.844 C 44.283 34.432 43.165 35.333 42.525 35.846 C 41.433 36.724 36.744 37 35.515 37 L 27 37 L 27 37 Z " fill="rgb(255,255,255)"/></g><g style="opacity:0.6;"><g opacity="0.6"><path d=" M 40.495 47.627 L 31.449 43.759 C 30.979 43.558 30.594 43.805 30.594 44.308 L 30.594 44.768 L 30.594 45.097 L 30.594 45.557 C 30.594 46.06 30.979 46.636 31.449 46.838 L 37.499 49.43 C 37.594 49.47 37.664 49.517 37.721 49.566 C 37.664 49.615 37.593 49.662 37.499 49.702 L 31.449 52.294 C 30.979 52.495 30.594 53.072 30.594 53.576 L 30.594 54.035 L 30.594 54.341 L 30.594 54.801 C 30.594 55.304 30.979 55.553 31.45 55.352 L 40.493 51.503 C 40.964 51.303 41.349 50.727 41.349 50.224 L 41.349 49.765 L 41.349 49.367 L 41.349 48.908 C 41.349 48.404 40.964 47.829 40.495 47.627 Z " fill="rgb(255,255,255)"/></g><g opacity="0.6"><path d=" M 51.661 57.378 L 42.771 57.378 C 42.258 57.378 41.839 57.848 41.839 58.421 L 41.839 58.821 L 41.839 58.867 L 41.839 59.267 C 41.839 59.841 42.258 60.311 42.771 60.311 L 51.661 60.311 C 52.175 60.311 52.594 59.841 52.594 59.267 L 52.594 58.867 L 52.594 58.821 L 52.594 58.421 C 52.594 57.848 52.175 57.378 51.661 57.378 Z " fill="rgb(255,255,255)"/></g></g></g></g></svg>