<?xml version="1.0" encoding="UTF-8" standalone="no"?>
<!-- Generator: Adobe Illustrator 9.0, SVG Export Plug-In  -->

<svg
   xmlns:dc="http://purl.org/dc/elements/1.1/"
   xmlns:cc="http://creativecommons.org/ns#"
   xmlns:rdf="http://www.w3.org/1999/02/22-rdf-syntax-ns#"
   xmlns:svg="http://www.w3.org/2000/svg"
   xmlns="http://www.w3.org/2000/svg"
   xmlns:sodipodi="http://sodipodi.sourceforge.net/DTD/sodipodi-0.dtd"
   xmlns:inkscape="http://www.inkscape.org/namespaces/inkscape"
   width="96"
   height="96"
   viewBox="0 0 96 96"
   xml:space="preserve"
   id="svg2"
   sodipodi:version="0.32"
   inkscape:version="0.91 r13725"
   sodipodi:docname="text-x-generic.svg"
   version="1.1"><metadata
     id="metadata19"><rdf:RDF><cc:Work
         rdf:about=""><dc:format>image/svg+xml</dc:format><dc:type
           rdf:resource="http://purl.org/dc/dcmitype/StillImage" /><dc:title>Document new</dc:title><dc:creator><cc:Agent><dc:title>Jakub Stainer</dc:title></cc:Agent></dc:creator><cc:license
           rdf:resource="http://creativecommons.org/licenses/GPL/2.0/" /></cc:Work><cc:License
         rdf:about="http://creativecommons.org/licenses/GPL/2.0/"><cc:permits
           rdf:resource="http://web.resource.org/cc/Reproduction" /><cc:permits
           rdf:resource="http://web.resource.org/cc/Distribution" /><cc:requires
           rdf:resource="http://web.resource.org/cc/Notice" /><cc:permits
           rdf:resource="http://web.resource.org/cc/DerivativeWorks" /><cc:requires
           rdf:resource="http://web.resource.org/cc/ShareAlike" /><cc:requires
           rdf:resource="http://web.resource.org/cc/SourceCode" /></cc:License></rdf:RDF></metadata><defs
     id="defs17" /><sodipodi:namedview
     inkscape:window-height="716"
     inkscape:window-width="1280"
     inkscape:pageshadow="2"
     inkscape:pageopacity="0.0"
     borderopacity="1.0"
     bordercolor="#666666"
     pagecolor="#ffffff"
     id="base"
     gridtolerance="0.50000000px"
     showgrid="true"
     guidetolerance="0.50000000px"
     inkscape:grid-points="true"
     inkscape:zoom="3.9895833"
     inkscape:cx="-11.41055"
     inkscape:cy="24"
     inkscape:window-x="63"
     inkscape:window-y="34"
     inkscape:current-layer="svg2"
     showguides="true"
     inkscape:guide-bbox="true"
     inkscape:window-maximized="0"><sodipodi:guide
       orientation="vertical"
       position="24.944882"
       id="guide3305" /><sodipodi:guide
       orientation="horizontal"
       position="28.031496"
       id="guide3307" /></sodipodi:namedview><rect
     style="fill:none;stroke:none"
     id="rect3319"
     width="48"
     height="48"
     x="24"
     y="24" /><path
     id="path7"
     d="m 63,65 -30,0 0,-35 21,0 9,10 0,25 z"
     style="fill:#ffffff;fill-opacity:1;fill-rule:nonzero;stroke:#ffffff;stroke-width:2;stroke-linejoin:round;stroke-miterlimit:4;stroke-dasharray:none;stroke-opacity:1"
     sodipodi:nodetypes="cccccc"
     inkscape:connector-curvature="0" /><path
     id="path9"
     d="M 61,40 60.996573,63.003906 35,63 35.016535,32.01811 53,32 l 8,8 z"
     style="fill:#bebebe;fill-rule:nonzero;stroke:none;fill-opacity:1"
     sodipodi:nodetypes="cccccc"
     inkscape:connector-curvature="0" /><path
     style="fill:none;stroke:#ffffff;stroke-width:4;stroke-linecap:round;stroke-linejoin:miter;stroke-miterlimit:4;stroke-opacity:1;stroke-dasharray:none"
     d="m 39,40 13,0"
     id="path1309"
     inkscape:connector-curvature="0" /><path
     id="path2184"
     d="m 38.944882,48 8,0"
     style="fill:none;stroke:#ffffff;stroke-width:4;stroke-linecap:round;stroke-linejoin:miter;stroke-miterlimit:4;stroke-opacity:1;stroke-dasharray:none"
     sodipodi:nodetypes="cc"
     inkscape:connector-curvature="0" /><path
     sodipodi:nodetypes="cc"
     style="fill:none;stroke:#ffffff;stroke-width:4;stroke-linecap:round;stroke-linejoin:miter;stroke-miterlimit:4;stroke-opacity:1;stroke-dasharray:none"
     d="m 39,56 18,0"
     id="path2186"
     inkscape:connector-curvature="0" /><path
     style="opacity:1;fill:#a38d1c;fill-opacity:1;stroke:#000000;stroke-width:0.25065273"
     d="m 35.16073,47.511227 0,-15.415144 8.963773,0 8.963774,0 3.944843,3.950631 3.944842,3.950631 0,11.464513 0,11.464513 -12.908616,0 -12.908616,0 0,-15.415144 z m 22.791472,10.286034 c 1.217414,-0.629549 1.419542,-2.264908 0.4053,-3.279151 l -0.615239,-0.615238 -9.524403,0 c -6.446393,0 -9.721792,0.08994 -10.13519,0.278293 -0.631228,0.287606 -1.167371,1.175661 -1.167371,1.933604 0,0.60269 0.699861,1.541222 1.342746,1.800657 0.295432,0.119221 4.687921,0.223916 9.761085,0.232654 7.627974,0.01313 9.346634,-0.04756 9.933072,-0.350819 z M 47.926093,49.776372 c 1.139584,-0.589302 1.400038,-2.116408 0.541905,-3.177325 -0.465616,-0.575644 -0.599681,-0.593893 -4.929663,-0.671048 -2.448066,-0.04362 -4.717012,-0.01255 -5.042103,0.06904 -1.876322,0.470927 -2.158524,2.86518 -0.452996,3.8433 0.792644,0.454581 8.982605,0.401572 9.882857,-0.06397 z m 5.418354,-8.269417 c 0.757538,-0.757539 0.819346,-2.084836 0.136384,-2.928795 l -0.478855,-0.591737 -7.299774,-0.07355 -7.299775,-0.07355 -0.743564,0.743564 c -0.961931,0.961931 -0.965384,1.852132 -0.01089,2.806629 l 0.732677,0.732677 7.174277,0 7.174277,0 0.615239,-0.615238 z"
     id="path3340"
     inkscape:connector-curvature="0" /></svg>