<?xml version="1.0" encoding="UTF-8" standalone="no"?>
<!-- Created with Inkscape (http://www.inkscape.org/) -->

<svg
   xmlns:dc="http://purl.org/dc/elements/1.1/"
   xmlns:cc="http://creativecommons.org/ns#"
   xmlns:rdf="http://www.w3.org/1999/02/22-rdf-syntax-ns#"
   xmlns:svg="http://www.w3.org/2000/svg"
   xmlns="http://www.w3.org/2000/svg"
   xmlns:xlink="http://www.w3.org/1999/xlink"
   xmlns:sodipodi="http://sodipodi.sourceforge.net/DTD/sodipodi-0.dtd"
   xmlns:inkscape="http://www.inkscape.org/namespaces/inkscape"
   width="96"
   height="96"
   id="svg2160"
   sodipodi:version="0.32"
   inkscape:version="0.91 r13725"
   sodipodi:docname="video-x-generic.svg"
   inkscape:output_extension="org.inkscape.output.svg.inkscape"
   sodipodi:modified="true"
   version="1.1">
  <defs
     id="defs2162" />
  <sodipodi:namedview
     id="base"
     pagecolor="#ffffff"
     bordercolor="#666666"
     borderopacity="1.0"
     inkscape:pageopacity="0.0"
     inkscape:pageshadow="2"
     inkscape:zoom="3.75"
     inkscape:cx="-23.066667"
     inkscape:cy="12.277893"
     inkscape:current-layer="layer1"
     showgrid="true"
     inkscape:grid-bbox="true"
     inkscape:document-units="px"
     showguides="true"
     inkscape:guide-bbox="true"
     inkscape:grid-points="true"
     inkscape:window-width="1280"
     inkscape:window-height="743"
     inkscape:window-x="63"
     inkscape:window-y="34"
     inkscape:window-maximized="0">
    <sodipodi:guide
       orientation="horizontal"
       position="12"
       id="guide3155" />
  </sodipodi:namedview>
  <metadata
     id="metadata2165">
    <rdf:RDF>
      <cc:Work
         rdf:about="">
        <dc:format>image/svg+xml</dc:format>
        <dc:type
           rdf:resource="http://purl.org/dc/dcmitype/StillImage" />
        <cc:license
           rdf:resource="http://creativecommons.org/licenses/LGPL/2.1/" />
        <dc:title>Generic Video File</dc:title>
        <dc:creator>
          <cc:Agent>
            <dc:title>Luca Ferretti &lt;elle.uca@libero.it&gt;</dc:title>
          </cc:Agent>
        </dc:creator>
        <dc:subject>
          <rdf:Bag>
            <rdf:li>video</rdf:li>
            <rdf:li>movie</rdf:li>
            <rdf:li>file</rdf:li>
          </rdf:Bag>
        </dc:subject>
        <dc:coverage>A generic icon for video files</dc:coverage>
      </cc:Work>
      <cc:License
         rdf:about="http://creativecommons.org/licenses/LGPL/2.1/">
        <cc:permits
           rdf:resource="http://web.resource.org/cc/Reproduction" />
        <cc:permits
           rdf:resource="http://web.resource.org/cc/Distribution" />
        <cc:requires
           rdf:resource="http://web.resource.org/cc/Notice" />
        <cc:permits
           rdf:resource="http://web.resource.org/cc/DerivativeWorks" />
        <cc:requires
           rdf:resource="http://web.resource.org/cc/ShareAlike" />
        <cc:requires
           rdf:resource="http://web.resource.org/cc/SourceCode" />
      </cc:License>
    </rdf:RDF>
  </metadata>
  <g
     id="layer1"
     inkscape:label="Layer 1"
     inkscape:groupmode="layer"
     transform="translate(0,48)">
    <rect
       style="fill:none;stroke:none"
       id="rect2192"
       width="48"
       height="48"
       x="24"
       y="-24" />
    <rect
       y="30.998514"
       x="-19.00206"
       height="33.995193"
       width="38.001724"
       id="rect4142"
       style="fill:#ffffff;fill-opacity:1;stroke:#ffffff;stroke-width:4;stroke-linecap:round;stroke-linejoin:round;stroke-miterlimit:4;stroke-opacity:1;stroke-dasharray:none"
       transform="matrix(0,-1,1,0,0,0)" />
    <rect
       style="fill:#bebebe;fill-opacity:1;stroke:none"
       id="rect2176"
       width="38"
       height="34"
       x="-19"
       y="31"
       transform="matrix(0,-1,1,0,0,0)" />
    <rect
       style="fill:#ffffff;fill-opacity:1;stroke:none"
       id="rect5113"
       width="3.9060783"
       height="2.9088433"
       x="-17.039413"
       y="33.016575"
       ry="0.86187845"
       transform="matrix(0,-1,1,0,0,0)" />
    <use
       x="0"
       y="0"
       xlink:href="#rect5113"
       id="use6084"
       transform="translate(-0.016575,-6.039413)"
       width="48"
       height="48" />
    <use
       height="48"
       width="48"
       transform="translate(-0.016575,-12.039411)"
       id="use6086"
       xlink:href="#rect5113"
       y="0"
       x="0" />
    <use
       height="48"
       width="48"
       transform="translate(-0.016575,-18.039411)"
       id="use6090"
       xlink:href="#rect5113"
       y="0"
       x="0" />
    <use
       x="0"
       y="0"
       xlink:href="#rect5113"
       id="use6092"
       transform="translate(-0.016575,-24.133335)"
       width="48"
       height="48" />
    <use
       height="48"
       width="48"
       transform="translate(-0.016575,-30.133335)"
       id="use6094"
       xlink:href="#rect5113"
       y="0"
       x="0" />
    <use
       height="48"
       width="48"
       transform="translate(27.074582,-0.039413)"
       id="use6098"
       xlink:href="#rect5113"
       y="0"
       x="0" />
    <use
       x="0"
       y="0"
       xlink:href="#rect5113"
       id="use6100"
       transform="translate(26.983425,-6.039413)"
       width="48"
       height="48" />
    <use
       height="48"
       width="48"
       transform="translate(26.983425,-12.039413)"
       id="use6102"
       xlink:href="#rect5113"
       y="0"
       x="0" />
    <use
       x="0"
       y="0"
       xlink:href="#rect5113"
       id="use6104"
       transform="translate(27.074582,-18.133335)"
       width="48"
       height="48" />
    <use
       height="48"
       width="48"
       transform="translate(27.074582,-24.133335)"
       id="use6106"
       xlink:href="#rect5113"
       y="0"
       x="0" />
    <use
       x="0"
       y="0"
       xlink:href="#rect5113"
       id="use6108"
       transform="translate(26.983425,-30.133335)"
       width="48"
       height="48" />
    <rect
       style="fill:#ffffff;fill-opacity:1;stroke:none"
       id="rect2188"
       width="20"
       height="14.933332"
       x="38"
       y="2"
       rx="1.4732958"
       ry="1.5469612" />
    <rect
       ry="1.5469612"
       rx="1.4732958"
       y="-16.933332"
       x="38"
       height="14.933332"
       width="20"
       id="rect2190"
       style="fill:#ffffff;fill-opacity:1;stroke:none" />
    <path
       style="opacity:1;fill:#a38d1c;fill-opacity:1;stroke:#000000;stroke-width:0.26666668"
       d="m 31.013333,48.042107 0,-18.933333 16.933333,0 16.933334,0 0,18.933333 0,18.933333 -16.933334,0 -16.933333,0 0,-18.933333 z M 35.76,64.788774 c 0.415206,-0.415206 0.415206,-2.944795 0,-3.36 -0.176,-0.176 -0.752,-0.32 -1.28,-0.32 -1.289057,0 -1.6,0.38868 -1.6,2 0,1.61132 0.310943,2 1.6,2 0.528,0 1.104,-0.144 1.28,-0.32 z M 57.450458,64.599 58.08,64.08923 l 0,-6.528899 c 0,-6.046133 -0.03756,-6.570403 -0.507998,-7.090227 -0.497475,-0.549706 -0.695853,-0.56133 -9.579002,-0.56133 -8.066446,0 -9.125011,0.04887 -9.558669,0.44133 -0.447514,0.404994 -0.487665,0.986812 -0.487665,7.066667 0,6.269781 0.02862,6.653957 0.533334,7.158669 0.512035,0.512035 0.888888,0.533334 9.437124,0.533334 8.369294,0 8.941583,-0.0306 9.533334,-0.509774 z m 5.277536,0.132272 c 0.184782,-0.222648 0.280216,-1.015706 0.232651,-1.933333 L 62.88,61.242107 l -1.333334,0 -1.333333,0 -0.08049,1.709051 c -0.0559,1.186837 0.02557,1.776336 0.266667,1.92925 0.556997,0.353299 1.987544,0.261675 2.328485,-0.149136 z M 35.76,58.65544 c 0.392536,-0.392536 0.421243,-2.459221 0.04395,-3.164197 -0.318889,-0.59585 -2.072074,-0.72768 -2.603951,-0.195803 -0.33323,0.33323 -0.439594,2.524723 -0.158137,3.25819 0.196625,0.512394 2.23134,0.588608 2.718137,0.10181 z m 27.091469,-0.10181 c 0.281459,-0.733467 0.175093,-2.92496 -0.158136,-3.25819 -0.531877,-0.531877 -2.285061,-0.400047 -2.603952,0.195803 -0.377291,0.704976 -0.348584,2.771661 0.04395,3.164197 0.486797,0.486798 2.521512,0.410584 2.718136,-0.10181 z M 35.803951,52.592971 c 0.377292,-0.704977 0.348585,-2.771661 -0.04395,-3.164197 -0.486797,-0.486797 -2.521512,-0.410585 -2.718137,0.10181 -0.281457,0.733466 -0.175093,2.92496 0.158137,3.25819 0.531877,0.531877 2.285062,0.400047 2.603951,-0.195803 z m 26.889382,0.195803 c 0.333229,-0.33323 0.439595,-2.524724 0.158136,-3.25819 -0.196624,-0.512395 -2.231339,-0.588607 -2.718136,-0.10181 -0.392536,0.392536 -0.421243,2.45922 -0.04395,3.164197 0.318891,0.59585 2.072075,0.72768 2.603952,0.195803 z M 35.76,46.65544 c 0.392536,-0.392536 0.421243,-2.45922 0.04395,-3.164197 -0.318889,-0.59585 -2.072074,-0.72768 -2.603951,-0.195803 -0.33323,0.33323 -0.439594,2.524724 -0.158137,3.25819 0.196625,0.512395 2.23134,0.588607 2.718137,0.10181 z m 27.12,-1.68 0,-1.866666 -1.333334,0 -1.333333,0 -0.08107,1.57014 c -0.113952,2.206917 -0.02563,2.341012 1.478352,2.244582 l 1.269387,-0.08139 0,-1.866667 z m -5.429542,0.690228 0.629542,-0.509773 0,-6.528897 c 0,-6.046133 -0.03756,-6.570404 -0.507998,-7.090228 -0.497475,-0.549705 -0.695853,-0.56133 -9.579002,-0.56133 -8.066446,0 -9.125011,0.04888 -9.558669,0.44133 -0.447514,0.404994 -0.487665,0.986813 -0.487665,7.066667 0,6.269781 0.02862,6.653959 0.533334,7.15867 0.512035,0.512036 0.888888,0.533333 9.437124,0.533333 8.369294,0 8.941583,-0.0306 9.533334,-0.509772 z M 35.660952,40.689726 c 0.564764,-0.564764 0.564764,-2.863808 0,-3.428571 -0.480621,-0.480622 -1.512568,-0.545769 -2.26515,-0.142999 -0.719758,0.385203 -0.7583,3.289541 -0.04914,3.702591 0.698846,0.407041 1.84088,0.342386 2.314286,-0.131021 z m 26.836578,0.142999 c 0.418387,-0.223913 0.515803,-0.566387 0.515803,-1.813334 0,-1.746955 -0.28988,-2.177284 -1.466667,-2.177284 -1.176293,0 -1.466666,0.430298 -1.466666,2.173416 0,1.179072 0.107837,1.596226 0.466666,1.805224 0.605371,0.352597 1.306371,0.356901 1.950864,0.01198 z M 35.803951,34.459638 c 0.377292,-0.704977 0.348585,-2.771661 -0.04395,-3.164198 -0.413991,-0.413991 -2.146009,-0.413991 -2.56,0 -0.415207,0.415207 -0.415207,2.944794 0,3.36 0.531877,0.531877 2.285062,0.400048 2.603951,-0.195802 z m 26.889382,0.195802 c 0.176,-0.176 0.32,-0.932 0.32,-1.68 0,-1.623215 -0.309707,-2 -1.643952,-2 -1.166672,0 -1.556048,0.500468 -1.556048,2 0,1.499532 0.389376,2 1.556048,2 0.552173,0 1.147952,-0.144 1.323952,-0.32 z"
       id="path3351"
       inkscape:connector-curvature="0"
       transform="translate(0,-48)" />
  </g>
</svg>
