<?xml version="1.0" encoding="UTF-8" standalone="no"?><!-- Generator: Gravit.io --><svg xmlns="http://www.w3.org/2000/svg" xmlns:xlink="http://www.w3.org/1999/xlink" style="isolation:isolate" viewBox="0 0 96 96" width="96pt" height="96pt"><defs><clipPath id="_clipPath_LXiBWEkqSqHNmS2hOxGAPqjPq2qPpuJV"><rect width="96" height="96"/></clipPath></defs><g clip-path="url(#_clipPath_LXiBWEkqSqHNmS2hOxGAPqjPq2qPpuJV)"><g opacity="0"><rect x="0" y="0" width="64" height="64" transform="matrix(1,0,0,1,0,0)" fill="rgb(255,255,255)"/></g><g><g opacity="0.6"><path d=" M 48 72.5 C 34.491 72.5 23.5 61.51 23.5 48 C 23.5 34.49 34.491 23.5 48 23.5 C 61.51 23.5 72.5 34.49 72.5 48 C 72.5 61.51 61.51 72.5 48 72.5 Z  M 48 25.5 C 35.593 25.5 25.5 35.593 25.5 48 C 25.5 60.406 35.593 70.5 48 70.5 C 60.406 70.5 70.5 60.406 70.5 48 C 70.5 35.593 60.406 25.5 48 25.5 Z " fill="rgb(255,255,255)"/></g><path d=" M 43.623 60.291 C 43.133 60.291 42.752 60.156 42.498 60.026 C 41.938 59.74 41 58.967 41 56.999 L 41 39 C 41 37.032 41.938 36.258 42.497 35.973 C 43.056 35.687 44.231 35.379 45.828 36.532 L 57.344 44.849 C 58.457 45.653 59.096 46.802 59.095 48.001 C 59.095 49.2 58.456 50.35 57.342 51.153 L 45.828 59.468 C 44.958 60.097 44.211 60.291 43.623 60.291 Z  M 43.614 37.711 C 43.528 37.711 43.459 37.727 43.408 37.753 C 43.22 37.849 43 38.233 43 39 L 43 57 C 43 57.767 43.22 58.15 43.408 58.247 C 43.596 58.342 44.036 58.297 44.658 57.848 L 56.172 49.533 C 56.768 49.102 57.096 48.559 57.096 48.002 C 57.096 47.444 56.769 46.901 56.173 46.471 L 44.658 38.154 C 44.204 37.825 43.847 37.711 43.614 37.711 Z " fill="rgb(255,255,255)"/></g></g></svg>